<?xml version="1.0"?>
<COLLADA xmlns="http://www.collada.org/2005/11/COLLADASchema" version="1.4.1">
	<asset>
		<contributor>
			<author>Assimp</author>
			<authoring_tool>Assimp Exporter</authoring_tool>
		</contributor>
		<created>2022-11-20T15:17:26</created>
		<modified>2022-11-20T15:17:26</modified>
		<unit name="meter" meter="0.010000" />
		<up_axis>Y_UP</up_axis>
	</asset>
	<library_effects>
		<effect id="initialShadingGroup_1001-fx" name="initialShadingGroup_1001">
			<profile_COMMON>
				<technique sid="standard">
					<lambert>
						<emission>
							<color sid="emission">0.000000   0.000000   0.000000   1.000000</color>
						</emission>
						<ambient>
							<color sid="ambient">0.000000   0.000000   0.000000   1.000000</color>
						</ambient>
						<diffuse>
							<color sid="diffuse">0.500000   0.500000   0.500000   1.000000</color>
						</diffuse>
						<specular>
							<color sid="specular">0.000000   0.000000   0.000000   1.000000</color>
						</specular>
						<shininess>
							<float sid="shininess">0.000000</float>
						</shininess>
						<transparency>
							<float sid="transparency">0.000000</float>
						</transparency>
						<index_of_refraction>
							<float sid="index_of_refraction">1.000000</float>
						</index_of_refraction>
					</lambert>
				</technique>
			</profile_COMMON>
		</effect>
	</library_effects>
	<library_materials>
		<material id="initialShadingGroup_1001" name="initialShadingGroup_1001">
			<instance_effect url="#initialShadingGroup_1001-fx"/>
		</material>
	</library_materials>
	<library_geometries>
		<geometry id="meshId0" name="meshId0_name" >
			<mesh>
				<source id="meshId0-positions" name="meshId0-positions">
					<float_array id="meshId0-positions-array" count="1722"> 
						1.010836 4.324843 -0.328442 1.178405 2.689539 -0.382888 1.002412 2.689539 -0.728295 0.859869 4.324843 -0.624731 0.728295 2.689539 -1.002412 0.624731 4.324843 -0.859868 0.382887 2.689539 -1.178405 0.328442 4.324843 -1.010836 0.000000 2.689539 -1.239049 0.000001 4.324843 -1.062855 0.000001 4.324843 -1.062855 0.000000 2.689539 -1.239049 -0.382887 2.689539 -1.178405 -0.328441 4.324843 -1.010835 -0.728294 2.689539 -1.002411 -0.624732 4.324843 -0.859868 -1.002411 2.689539 -0.728294 -0.859868 4.324843 -0.624730 -1.178405 2.689539 -0.382887 -1.010836 4.324843 -0.328442 -1.239048 2.689539 0.000000 -1.062855 4.324843 0.000000 -1.178405 2.689539 0.382887 -1.010836 4.324843 0.328440 -1.002411 2.689539 0.728294 -0.859868 4.324843 0.624730 -0.728294 2.689539 1.002411 -0.624731 4.324843 0.859869 -0.382887 2.689539 1.178405 -0.328440 4.324843 1.010834 0.000000 2.689539 1.239048 -0.000002 4.324843 1.062855 0.382887 2.689539 1.178405 0.328440 4.324843 1.010834 0.728294 2.689539 1.002411 0.624731 4.324843 0.859866 1.002411 2.689539 0.728294 0.859868 4.324843 0.624730 1.178405 2.689539 0.382887 1.010835 4.324843 0.328440 1.239048 2.689539 0.000000 1.062855 4.324843 0.000000 1.569102 7.411324 -0.509838 1.118967 6.070051 -0.363577 0.951850 6.070051 -0.691560 1.334758 7.411324 -0.969759 0.691559 6.070051 -0.951848 0.969758 7.411324 -1.334754 0.363577 6.070051 -1.118966 0.509837 7.411324 -1.569100 0.000003 6.070051 -1.176548 0.000006 7.411325 -1.649847 0.000006 7.411325 -1.649847 0.000003 6.070051 -1.176548 -0.363576 6.070051 -1.118965 -0.509836 7.411325 -1.569100 -0.691561 6.070051 -0.951849 -0.969762 7.411324 -1.334756 -0.951849 6.070051 -0.691558 -1.334757 7.411324 -0.969756 -1.118966 6.070051 -0.363577 -1.569101 7.411324 -0.509837 -1.176551 6.070051 0.000000 -1.649850 7.411324 -0.000001 
						-1.118966 6.070051 0.363574 -1.569101 7.411324 0.509831 -0.951850 6.070051 0.691559 -1.334757 7.411324 0.969757 -0.691559 6.070051 0.951852 -0.969758 7.411324 1.334761 -0.363574 6.070051 1.118964 -0.509832 7.411324 1.569098 -0.000003 6.070051 1.176550 -0.000006 7.411324 1.649848 0.363573 6.070051 1.118964 0.509831 7.411324 1.569097 0.691561 6.070051 0.951846 0.969762 7.411324 1.334749 0.951849 6.070051 0.691558 1.334756 7.411324 0.969755 1.118966 6.070051 0.363574 1.569101 7.411324 0.509831 1.176550 6.070051 -0.000001 1.649850 7.411324 -0.000001 1.582564 9.847200 -1.149800 1.860414 9.847200 -0.604494 2.259218 9.395986 -0.734075 1.921807 9.395986 -1.396275 2.406361 8.882895 -0.781885 2.046974 8.882895 -1.487214 1.149799 9.847200 -1.582557 1.396274 9.395986 -1.921799 1.487213 8.882895 -2.046966 0.604493 9.847200 -1.860411 0.734074 9.395986 -2.259215 0.781884 8.882895 -2.406358 0.000009 9.847201 -1.956149 0.000010 9.395988 -2.375475 0.000010 8.882895 -2.530190 -0.604491 9.847201 -1.860410 -0.734071 9.395992 -2.259214 -0.781881 8.882896 -2.406357 -1.149806 9.847200 -1.582559 -1.396281 9.395986 -1.921802 -1.487220 8.882895 -2.046970 -1.582562 9.847200 -1.149795 -1.921805 9.395986 -1.396270 -2.046972 8.882895 -1.487209 -1.860413 9.847200 -0.604492 -2.259217 9.395986 -0.734073 -2.406359 8.882895 -0.781883 -1.956154 9.847200 -0.000001 -2.375481 9.395986 -0.000001 -2.530196 8.882895 -0.000002 -1.860413 9.847200 0.604484 -2.259217 9.395986 0.734063 -2.406359 8.882895 0.781872 -1.582562 9.847200 1.149797 -1.921805 9.395986 1.396271 -2.046972 8.882895 1.487211 -1.149799 9.847200 1.582568 -1.396273 9.395986 1.921811 -1.487212 8.882895 2.046978 -0.604485 9.847200 1.860409 -0.734064 9.395986 2.259212 -0.781874 8.882895 2.406353 -0.000008 9.847200 1.956151 -0.000010 9.395986 2.375478 
						-0.000010 8.882895 2.530193 0.604483 9.847200 1.860407 0.734062 9.395986 2.259210 0.781872 8.882895 2.406352 1.149805 9.847200 1.582551 1.396280 9.395986 1.921792 1.487220 8.882895 2.046958 1.582561 9.847200 1.149794 1.921804 9.395986 1.396267 2.046971 8.882895 1.487206 1.860413 9.847200 0.604484 2.259217 9.395986 0.734063 2.406359 8.882895 0.781872 1.956154 9.847200 -0.000001 2.375481 9.395986 -0.000002 2.530196 8.882895 -0.000002 0.660813 10.264511 -0.214718 0.562125 10.264511 -0.408402 0.000000 10.264509 0.000000 0.408406 10.264511 -0.562118 0.214716 10.264511 -0.660810 0.000007 10.264511 -0.694816 -0.214720 10.264511 -0.660809 -0.408408 10.264511 -0.562119 -0.562122 10.264511 -0.408402 -0.660813 10.264511 -0.214713 -0.694820 10.264511 -0.000001 -0.660813 10.264511 0.214711 -0.562120 10.264511 0.408407 -0.408406 10.264511 0.562124 -0.214716 10.264511 0.660810 -0.000006 10.264511 0.694817 0.214708 10.264511 0.660809 0.408409 10.264511 0.562114 0.562122 10.264511 0.408401 0.660813 10.264511 0.214711 0.694820 10.264511 -0.000001 1.292247 10.072683 -0.938872 1.519126 10.072683 -0.493602 1.108264 10.215551 -0.360104 0.942748 10.215551 -0.684944 0.938872 10.072683 -1.292241 0.684946 10.215551 -0.942742 0.493601 10.072683 -1.519124 0.360103 10.215551 -1.108261 0.000008 10.072683 -1.597298 0.000008 10.215551 -1.165293 -0.493600 10.072683 -1.519122 -0.360104 10.215551 -1.108260 -0.938878 10.072683 -1.292242 -0.684950 10.215551 -0.942743 -1.292245 10.072683 -0.938867 -0.942746 10.215551 -0.684941 -1.519126 10.072683 -0.493599 -1.108264 10.215551 -0.360100 -1.597303 10.072683 -0.000001 -1.165298 10.215551 0.000000 -1.519126 10.072683 0.493594 -1.108264 10.215551 0.360097 -1.292245 10.072683 0.938870 -0.942745 10.215551 0.684945 -0.938872 10.072683 1.292250 -0.684945 10.215551 0.942750 -0.493594 10.072681 1.519122 
						-0.360099 10.215551 1.108261 -0.000007 10.072681 1.597301 -0.000006 10.215551 1.165295 0.493592 10.072681 1.519121 0.360095 10.215551 1.108260 0.938877 10.072681 1.292236 0.684949 10.215551 0.942738 1.292245 10.072681 0.938867 0.942746 10.215551 0.684941 1.519126 10.072683 0.493594 1.108264 10.215551 0.360097 1.597302 10.072683 0.000000 1.165297 10.215551 0.000000 -0.000008 8.206936 2.058249 0.636033 8.206936 1.957508 -0.636035 8.206936 1.957509 -1.209810 8.206936 1.665166 -1.665161 8.206936 1.209809 -1.957513 8.206936 0.636034 -2.058251 8.206936 -0.000001 -1.957513 8.206936 -0.636042 -1.665161 8.206936 -1.209808 -1.209816 8.206936 -1.665159 -0.636040 8.206936 -1.957511 0.000008 8.206936 -2.058247 0.636042 8.206936 -1.957512 0.000008 8.206936 -2.058247 1.209811 8.206936 -1.665156 1.665163 8.206936 -1.209811 1.957515 8.206936 -0.636043 2.058251 8.206936 -0.000002 1.957513 8.206936 0.636033 1.665160 8.206936 1.209805 1.209816 8.206936 1.665150 -0.000002 5.100980 1.064795 0.329040 5.100980 1.012680 -0.329040 5.100980 1.012680 -0.625872 5.100980 0.861440 -0.861438 5.100980 0.625871 -1.012681 5.100980 0.329040 -1.064796 5.100980 0.000000 -1.012681 5.100980 -0.329042 -0.861438 5.100980 -0.625871 -0.625873 5.100980 -0.861438 -0.329041 5.100980 -1.012681 0.000002 5.100980 -1.064795 0.329042 5.100980 -1.012681 0.000002 5.100980 -1.064795 0.625872 5.100980 -0.861437 0.861439 5.100980 -0.625872 1.012682 5.100980 -0.329042 1.064796 5.100980 0.000000 1.012681 5.100980 0.329040 0.861438 5.100980 0.625870 0.625873 5.100980 0.861435 -0.000010 8.882895 2.530193 0.781872 8.882895 2.406352 -0.781874 8.882895 2.406353 -1.487212 8.882895 2.046978 -2.046972 8.882895 1.487211 -2.406359 8.882895 0.781872 -2.530196 8.882895 -0.000002 -2.406359 8.882895 -0.781883 -2.046972 8.882895 -1.487209 
						-1.487220 8.882895 -2.046970 -0.781881 8.882896 -2.406357 0.000010 8.882895 -2.530190 0.781884 8.882895 -2.406358 0.000010 8.882895 -2.530190 1.487213 8.882895 -2.046966 2.046974 8.882895 -1.487214 2.406361 8.882895 -0.781885 2.530196 8.882895 -0.000002 2.406359 8.882895 0.781872 2.046971 8.882895 1.487206 1.487220 8.882895 2.046958 1.467279 2.348366 -0.476748 3.095504 1.408186 -1.005790 2.633193 1.408186 -1.913127 1.248142 2.348366 -0.906828 1.913127 1.408186 -2.633193 0.906828 2.348366 -1.248142 1.005790 1.408186 -3.095504 0.476748 2.348366 -1.467279 0.000000 1.408186 -3.254806 0.000000 2.348366 -1.542788 -1.005790 1.408186 -3.095504 -0.476748 2.348366 -1.467279 -1.913126 1.408186 -2.633193 -0.906828 2.348366 -1.248142 -2.633193 1.408186 -1.913126 -1.248142 2.348366 -0.906828 -3.095502 1.408186 -1.005790 -1.467278 2.348366 -0.476748 -3.254805 1.408186 0.000000 -1.542788 2.348366 0.000000 -3.095502 1.408186 1.005790 -1.467278 2.348366 0.476748 -2.633192 1.408186 1.913126 -1.248142 2.348366 0.906828 -1.913126 1.408186 2.633192 -0.906828 2.348366 1.248142 -1.005790 1.408186 3.095502 -0.476748 2.348366 1.467278 0.000000 1.408186 3.254804 0.000000 2.348366 1.542787 1.005790 1.408186 3.095502 0.476748 2.348366 1.467278 1.913126 1.408186 2.633192 0.906828 2.348366 1.248141 2.633191 1.408186 1.913126 1.248141 2.348366 0.906828 3.095502 1.408186 1.005790 1.467278 2.348366 0.476747 3.254804 1.408186 0.000000 1.542788 2.348366 0.000000 3.327443 1.286205 0.000000 3.164588 1.286205 -1.028237 3.146024 1.356955 -1.022205 3.307923 1.356955 0.000000 3.307923 1.356955 0.000000 3.146024 1.356955 -1.022205 2.676168 1.356955 -1.944350 2.676168 1.356955 -1.944350 2.691960 1.286205 -1.955823 1.944350 1.356955 -2.676168 1.944350 1.356955 -2.676168 1.955823 1.286205 -2.691960 
						1.022205 1.356955 -3.146024 1.022205 1.356955 -3.146024 1.028237 1.286205 -3.164588 0.000000 1.356955 -3.307925 0.000000 1.356955 -3.307925 0.000000 1.286205 -3.327445 -1.022205 1.356955 -3.146023 -1.022205 1.356955 -3.146023 0.000000 1.356955 -3.307925 0.000000 1.286205 -3.327445 -1.028237 1.286205 -3.164588 -1.944349 1.356955 -2.676167 -1.944349 1.356955 -2.676167 -1.955823 1.286205 -2.691959 -2.676167 1.356955 -1.944349 -2.676167 1.356955 -1.944349 -2.691959 1.286205 -1.955823 -3.146023 1.356955 -1.022205 -3.146023 1.356955 -1.022205 -3.164587 1.286205 -1.028237 -3.307924 1.356955 0.000000 -3.307924 1.356955 0.000000 -3.327444 1.286205 0.000000 -3.146023 1.356955 1.022205 -3.146023 1.356955 1.022205 -3.164587 1.286205 1.028237 -2.676167 1.356955 1.944349 -2.676167 1.356955 1.944349 -2.691959 1.286205 1.955822 -1.944349 1.356955 2.676167 -1.944349 1.356955 2.676167 -1.955822 1.286205 2.691959 -1.022205 1.356955 3.146023 -1.022205 1.356955 3.146023 -1.028237 1.286205 3.164587 0.000000 1.356955 3.307924 0.000000 1.356955 3.307924 0.000000 1.286205 3.327444 1.022204 1.356955 3.146022 1.022204 1.356955 3.146022 1.028237 1.286205 3.164587 1.944349 1.356955 2.676166 1.944349 1.356955 2.676166 1.955822 1.286205 2.691958 2.676166 1.356955 1.944349 2.676166 1.356955 1.944349 2.691958 1.286205 1.955822 3.146022 1.356955 1.022205 3.146022 1.356955 1.022205 3.164587 1.286205 1.028237 3.197232 0.000000 0.000000 3.040750 0.000000 -0.988000 3.164588 0.128608 -1.028237 3.327443 0.128608 0.000000 2.691960 0.128608 -1.955823 2.586617 0.000000 -1.879287 1.955823 0.128608 -2.691960 1.879287 0.000000 -2.586617 1.028237 0.128608 -3.164588 0.988000 0.000000 -3.040751 0.000000 0.128608 -3.327445 0.000000 0.000000 -3.197234 -1.028237 0.128608 -3.164588 0.000000 0.128608 -3.327445 
						0.000000 0.000000 -3.197234 -0.988000 0.000000 -3.040750 -1.955823 0.128608 -2.691959 -1.879287 0.000000 -2.586617 -2.691959 0.128608 -1.955823 -2.586616 0.000000 -1.879287 -3.164587 0.128608 -1.028237 -3.040750 0.000000 -0.987999 -3.327444 0.128608 0.000000 -3.197233 0.000000 0.000000 -3.164587 0.128608 1.028237 -3.040750 0.000000 0.987999 -2.691959 0.128608 1.955822 -2.586616 0.000000 1.879287 -1.955822 0.128608 2.691959 -1.879287 0.000000 2.586616 -1.028237 0.128608 3.164587 -0.987999 0.000000 3.040750 0.000000 0.128608 3.327444 0.000000 0.000000 3.197233 1.028237 0.128608 3.164587 0.987999 0.000000 3.040749 1.955822 0.128608 2.691958 1.879286 0.000000 2.586616 2.691958 0.128608 1.955822 2.586615 0.000000 1.879286 3.164587 0.128608 1.028237 3.040749 0.000000 0.987999 2.586617 0.000000 -1.879287 3.040750 0.000000 -0.988000 0.000000 0.000000 0.000000 1.879287 0.000000 -2.586617 0.988000 0.000000 -3.040751 0.000000 0.000000 -3.197234 -0.988000 0.000000 -3.040750 -1.879287 0.000000 -2.586617 -2.586616 0.000000 -1.879287 -3.040750 0.000000 -0.987999 -3.197233 0.000000 0.000000 -3.040750 0.000000 0.987999 -2.586616 0.000000 1.879287 -1.879287 0.000000 2.586616 -0.987999 0.000000 3.040750 0.000000 0.000000 3.197233 0.987999 0.000000 3.040749 1.879286 0.000000 2.586616 2.586615 0.000000 1.879286 3.040749 0.000000 0.987999 3.197232 0.000000 0.000000 3.164588 0.128608 -1.028237 2.691960 0.128608 -1.955823 1.955823 0.128608 -2.691960 1.028237 0.128608 -3.164588 0.000000 0.128608 -3.327445 0.000000 0.128608 -3.327445 -1.028237 0.128608 -3.164588 -1.955823 0.128608 -2.691959 -2.691959 0.128608 -1.955823 -3.164587 0.128608 -1.028237 -3.327444 0.128608 0.000000 -3.164587 0.128608 1.028237 -2.691959 0.128608 1.955822 -1.955822 0.128608 2.691959 -1.028237 0.128608 3.164587 
						0.000000 0.128608 3.327444 1.028237 0.128608 3.164587 1.955822 0.128608 2.691958 2.691958 0.128608 1.955822 3.164587 0.128608 1.028237 3.327443 0.128608 0.000000 1.467279 2.539555 -0.476748 1.467279 2.348366 -0.476748 1.248142 2.348366 -0.906828 1.248142 2.539555 -0.906828 0.906828 2.348366 -1.248142 0.906828 2.539555 -1.248142 0.476748 2.348366 -1.467279 0.476748 2.539555 -1.467279 0.000000 2.348366 -1.542788 0.000000 2.539555 -1.542788 -0.476748 2.348366 -1.467279 -0.476748 2.539555 -1.467279 -0.906828 2.348366 -1.248142 -0.906828 2.539555 -1.248142 -1.248142 2.348366 -0.906828 -1.248142 2.539555 -0.906828 -1.467278 2.348366 -0.476748 -1.467278 2.539555 -0.476748 -1.542788 2.348366 0.000000 -1.542788 2.539555 0.000000 -1.467278 2.348366 0.476748 -1.467278 2.539555 0.476748 -1.248142 2.348366 0.906828 -1.248142 2.539555 0.906828 -0.906828 2.348366 1.248142 -0.906828 2.539555 1.248142 -0.476748 2.348366 1.467278 -0.476748 2.539555 1.467278 0.000000 2.348366 1.542787 0.000000 2.539555 1.542787 0.476748 2.348366 1.467278 0.476747 2.539556 1.467278 0.906828 2.348366 1.248141 0.906828 2.539555 1.248141 1.248141 2.348366 0.906828 1.248141 2.539555 0.906828 1.467278 2.348366 0.476747 1.467278 2.539555 0.476747 1.542788 2.348366 0.000000 1.542788 2.539555 0.000000 1.178405 2.689539 -0.382888 1.322856 2.689539 -0.429822 1.125289 2.689539 -0.817570 1.002412 2.689539 -0.728295 0.817570 2.689539 -1.125289 0.728295 2.689539 -1.002412 0.429822 2.689539 -1.322856 0.382887 2.689539 -1.178405 0.000000 2.689539 -1.390934 0.000000 2.689539 -1.239049 -0.429822 2.689539 -1.322856 -0.382887 2.689539 -1.178405 -0.817570 2.689539 -1.125289 -0.728294 2.689539 -1.002411 -1.125289 2.689539 -0.817570 -1.002411 2.689539 -0.728294 -1.322856 2.689539 -0.429822 -1.178405 2.689539 -0.382887 
						-1.390933 2.689539 0.000000 -1.239048 2.689539 0.000000 -1.322856 2.689539 0.429822 -1.178405 2.689539 0.382887 -1.125289 2.689539 0.817570 -1.002411 2.689539 0.728294 -0.817570 2.689539 1.125289 -0.728294 2.689539 1.002411 -0.429822 2.689539 1.322856 -0.382887 2.689539 1.178405 0.000000 2.689539 1.390933 0.000000 2.689539 1.239048 0.429822 2.689539 1.322856 0.382887 2.689539 1.178405 0.817570 2.689539 1.125288 0.728294 2.689539 1.002411 1.125288 2.689539 0.817570 1.002411 2.689539 0.728294 1.322856 2.689539 0.429822 1.178405 2.689539 0.382887 1.390933 2.689539 0.000000 1.239048 2.689539 0.000000 1.424978 2.645609 -0.463004 1.498310 2.645609 0.000000 1.498310 2.645609 0.000000 1.424978 2.645609 -0.463004 1.212160 2.645609 -0.880685 1.212160 2.645609 -0.880685 0.880685 2.645609 -1.212159 0.880685 2.645609 -1.212159 0.463004 2.645609 -1.424978 0.463004 2.645609 -1.424978 0.000000 2.645611 -1.498311 0.000000 2.645611 -1.498311 -0.463004 2.645611 -1.424978 -0.463004 2.645611 -1.424978 -0.880685 2.645609 -1.212159 -0.880685 2.645609 -1.212159 -1.212159 2.645609 -0.880685 -1.212159 2.645609 -0.880685 -1.424978 2.645609 -0.463004 -1.424978 2.645609 -0.463004 -1.498310 2.645609 0.000000 -1.498310 2.645609 0.000000 -1.424978 2.645609 0.463003 -1.424978 2.645609 0.463003 -1.212159 2.645609 0.880685 -1.212159 2.645609 0.880685 -0.880685 2.645609 1.212159 -0.880685 2.645609 1.212159 -0.463003 2.645609 1.424978 -0.463003 2.645609 1.424978 0.000000 2.645609 1.498310 0.000000 2.645609 1.498310 0.463003 2.645611 1.424978 0.463003 2.645611 1.424978 0.880685 2.645609 1.212158 0.880685 2.645609 1.212158 1.212158 2.645609 0.880685 1.212158 2.645609 0.880685 1.424978 2.645609 0.463003 1.424978 2.645609 0.463003 
					</float_array>
					<technique_common>
						<accessor count="574" offset="0" source="#meshId0-positions-array" stride="3">
							<param name="X" type="float" />
							<param name="Y" type="float" />
							<param name="Z" type="float" />
						</accessor>
					</technique_common>
				</source>
				<source id="meshId0-normals" name="meshId0-normals">
					<float_array id="meshId0-normals-array" count="1722"> 
						0.948438 0.074164 -0.308165 0.945585 0.107123 -0.307237 0.804361 0.107123 -0.584404 0.806788 0.074165 -0.586168 0.584403 0.107123 -0.804362 0.586167 0.074165 -0.806789 0.307239 0.107124 -0.945584 0.308166 0.074165 -0.948437 0.000000 0.107124 -0.994246 0.000000 0.074165 -0.997246 0.000000 0.074165 -0.997246 0.000000 0.107124 -0.994246 -0.307239 0.107123 -0.945584 -0.308165 0.074165 -0.948438 -0.584404 0.107123 -0.804361 -0.586167 0.074164 -0.806788 -0.804362 0.107123 -0.584403 -0.806789 0.074164 -0.586167 -0.945584 0.107123 -0.307239 -0.948437 0.074164 -0.308166 -0.994246 0.107123 0.000000 -0.997246 0.074164 0.000000 -0.945584 0.107123 0.307239 -0.948437 0.074164 0.308166 -0.804362 0.107123 0.584403 -0.806790 0.074164 0.586166 -0.584403 0.107123 0.804362 -0.586166 0.074164 0.806790 -0.307238 0.107123 0.945584 -0.308165 0.074165 0.948438 0.000000 0.107124 0.994246 0.000000 0.074165 0.997246 0.307239 0.107124 0.945584 0.308166 0.074165 0.948437 0.584403 0.107124 0.804362 0.586166 0.074165 0.806789 0.804362 0.107123 0.584403 0.806789 0.074165 0.586167 0.945584 0.107123 0.307239 0.948437 0.074164 0.308166 0.994246 0.107123 0.000001 0.997246 0.074164 0.000001 0.874911 -0.392071 -0.284274 0.918465 -0.259547 -0.298426 0.781290 -0.259546 -0.567646 0.744240 -0.392070 -0.540728 0.567643 -0.259545 -0.781292 0.540725 -0.392069 -0.744243 0.298428 -0.259546 -0.918464 0.284276 -0.392070 -0.874910 -0.000001 -0.259545 -0.965731 -0.000001 -0.392069 -0.919936 -0.000001 -0.392069 -0.919936 -0.000001 -0.259545 -0.965731 -0.298423 -0.259546 -0.918466 -0.284271 -0.392070 -0.874912 -0.567644 -0.259546 -0.781291 -0.540726 -0.392070 -0.744242 -0.781293 -0.259546 -0.567642 -0.744243 -0.392070 -0.540725 -0.918464 -0.259546 -0.298428 -0.874910 -0.392070 -0.284276 -0.965731 -0.259546 0.000000 -0.919936 -0.392070 0.000000 
						-0.918465 -0.259546 0.298427 -0.874911 -0.392070 0.284276 -0.781294 -0.259546 0.567640 -0.744245 -0.392070 0.540722 -0.567641 -0.259547 0.781293 -0.540723 -0.392071 0.744244 -0.298424 -0.259545 0.918466 -0.284272 -0.392069 0.874912 0.000001 -0.259545 0.965731 0.000001 -0.392069 0.919936 0.298429 -0.259545 0.918464 0.284278 -0.392069 0.874910 0.567642 -0.259545 0.781293 0.540724 -0.392069 0.744244 0.781293 -0.259545 0.567643 0.744243 -0.392069 0.540725 0.918464 -0.259546 0.298428 0.874910 -0.392070 0.284277 0.965731 -0.259546 0.000001 0.919936 -0.392070 0.000001 0.543792 0.740400 -0.395093 0.639269 0.740400 -0.207710 0.829519 0.489136 -0.269525 0.705627 0.489136 -0.512675 0.910562 0.288696 -0.295857 0.774567 0.288696 -0.562762 0.395090 0.740400 -0.543794 0.512671 0.489136 -0.705630 0.562759 0.288695 -0.774569 0.207713 0.740399 -0.639268 0.269529 0.489136 -0.829518 0.295861 0.288696 -0.910561 0.000001 0.740400 -0.672167 0.000001 0.489136 -0.872208 0.000000 0.288695 -0.957421 -0.207707 0.740401 -0.639268 -0.269522 0.489137 -0.829520 -0.295854 0.288695 -0.910563 -0.395093 0.740401 -0.543791 -0.512674 0.489136 -0.705628 -0.562761 0.288696 -0.774567 -0.543795 0.740400 -0.395090 -0.705631 0.489137 -0.512670 -0.774570 0.288696 -0.562758 -0.639269 0.740400 -0.207712 -0.829518 0.489136 -0.269528 -0.910561 0.288695 -0.295860 -0.672167 0.740399 0.000000 -0.872208 0.489136 0.000000 -0.957421 0.288695 0.000000 -0.639269 0.740399 0.207711 -0.829519 0.489136 0.269527 -0.910562 0.288695 0.295859 -0.543796 0.740399 0.395088 -0.705633 0.489136 0.512668 -0.774572 0.288695 0.562755 -0.395089 0.740399 0.543796 -0.512669 0.489136 0.705632 -0.562756 0.288696 0.774571 -0.207708 0.740399 0.639270 -0.269524 0.489136 0.829520 -0.295856 0.288695 0.910563 0.000001 0.740399 0.672167 0.000001 0.489135 0.872208 
						0.000001 0.288695 0.957421 0.207713 0.740399 0.639269 0.269529 0.489135 0.829519 0.295862 0.288695 0.910561 0.395090 0.740399 0.543795 0.512670 0.489135 0.705632 0.562757 0.288695 0.774571 0.543795 0.740399 0.395090 0.705631 0.489135 0.512671 0.774570 0.288695 0.562758 0.639269 0.740399 0.207712 0.829519 0.489135 0.269528 0.910561 0.288695 0.295860 0.672167 0.740399 0.000000 0.872207 0.489136 0.000001 0.957421 0.288696 0.000001 0.068007 0.997440 -0.022098 0.057850 0.997440 -0.042032 0.000000 1.000000 0.000000 0.042031 0.997440 -0.057850 0.022097 0.997440 -0.068008 0.000000 0.997440 -0.071507 -0.022096 0.997440 -0.068008 -0.042031 0.997440 -0.057850 -0.057850 0.997440 -0.042030 -0.068007 0.997440 -0.022098 -0.071507 0.997440 -0.000001 -0.068007 0.997440 0.022097 -0.057850 0.997440 0.042031 -0.042031 0.997440 0.057851 -0.022096 0.997440 0.068008 0.000000 0.997440 0.071508 0.022097 0.997440 0.068006 0.042031 0.997440 0.057851 0.057850 0.997440 0.042032 0.068007 0.997440 0.022096 0.071507 0.997440 0.000000 0.360539 0.895206 -0.261951 0.423842 0.895206 -0.137714 0.226702 0.971175 -0.073659 0.192843 0.971175 -0.140111 0.261949 0.895206 -0.360541 0.140109 0.971175 -0.192843 0.137716 0.895205 -0.423841 0.073661 0.971175 -0.226701 0.000000 0.895206 -0.445653 0.000000 0.971175 -0.238367 -0.137712 0.895206 -0.423841 -0.073658 0.971175 -0.226702 -0.261951 0.895206 -0.360540 -0.140110 0.971175 -0.192844 -0.360541 0.895205 -0.261949 -0.192843 0.971175 -0.140109 -0.423842 0.895205 -0.137715 -0.226701 0.971175 -0.073661 -0.445654 0.895205 0.000000 -0.238368 0.971175 -0.000001 -0.423842 0.895205 0.137714 -0.226701 0.971175 0.073659 -0.360542 0.895205 0.261948 -0.192844 0.971175 0.140108 -0.261947 0.895206 0.360542 -0.140109 0.971175 0.192845 -0.137712 0.895205 0.423843 
						-0.073658 0.971174 0.226704 0.000001 0.895206 0.445653 0.000000 0.971174 0.238371 0.137716 0.895205 0.423842 0.073661 0.971174 0.226703 0.261948 0.895205 0.360542 0.140110 0.971174 0.192846 0.360541 0.895206 0.261949 0.192845 0.971174 0.140110 0.423841 0.895206 0.137715 0.226702 0.971175 0.073660 0.445654 0.895205 0.000000 0.238368 0.971175 0.000000 0.000001 -0.522478 0.852653 0.263486 -0.522478 0.810920 -0.263481 -0.522478 0.810922 -0.501175 -0.522480 0.689811 -0.689812 -0.522479 0.501174 -0.810921 -0.522479 0.263484 -0.852652 -0.522479 -0.000000 -0.810920 -0.522480 -0.263484 -0.689810 -0.522479 -0.501176 -0.501177 -0.522480 -0.689809 -0.263479 -0.522479 -0.810922 -0.000001 -0.522478 -0.852653 0.263485 -0.522479 -0.810920 -0.000001 -0.522478 -0.852653 0.501177 -0.522478 -0.689810 0.689807 -0.522480 -0.501180 0.810920 -0.522480 -0.263483 0.852652 -0.522479 0.000001 0.810920 -0.522479 0.263485 0.689810 -0.522478 0.501177 0.501176 -0.522478 0.689811 0.000000 -0.066764 0.997769 0.308329 -0.066764 0.948934 -0.308325 -0.066764 0.948935 -0.586473 -0.066765 0.807213 -0.807213 -0.066765 0.586472 -0.948935 -0.066765 0.308327 -0.997769 -0.066765 0.000000 -0.948934 -0.066765 -0.308328 -0.807212 -0.066764 -0.586474 -0.586475 -0.066765 -0.807211 -0.308325 -0.066764 -0.948935 -0.000001 -0.066764 -0.997769 0.308328 -0.066764 -0.948934 -0.000001 -0.066764 -0.997769 0.586474 -0.066764 -0.807212 0.807210 -0.066764 -0.586476 0.948935 -0.066765 -0.308326 0.997769 -0.066765 0.000001 0.948934 -0.066765 0.308328 0.807212 -0.066764 0.586474 0.586473 -0.066764 0.807212 0.000001 -0.572462 0.819931 0.253375 -0.572462 0.779800 -0.253370 -0.572462 0.779802 -0.481941 -0.572464 0.663338 -0.663339 -0.572463 0.481941 -0.779800 -0.572463 0.253372 -0.819930 -0.572463 -0.000000 -0.779800 -0.572464 -0.253373 -0.663338 -0.572463 -0.481943 
						-0.481944 -0.572464 -0.663337 -0.253368 -0.572463 -0.779802 -0.000001 -0.572462 -0.819931 0.253373 -0.572464 -0.779799 -0.000001 -0.572462 -0.819931 0.481944 -0.572463 -0.663337 0.663334 -0.572464 -0.481947 0.779800 -0.572464 -0.253371 0.819930 -0.572463 0.000001 0.779800 -0.572463 0.253373 0.663338 -0.572462 0.481943 0.481943 -0.572462 0.663339 0.457798 0.876525 -0.148747 0.470271 0.869193 -0.152800 0.400037 0.869193 -0.290644 0.389426 0.876525 -0.282934 0.290643 0.869193 -0.400037 0.282934 0.876525 -0.389426 0.152800 0.869193 -0.470271 0.148747 0.876525 -0.457797 0.000000 0.869193 -0.494472 0.000000 0.876525 -0.481357 -0.152801 0.869193 -0.470271 -0.148747 0.876525 -0.457797 -0.290644 0.869193 -0.400036 -0.282934 0.876525 -0.389426 -0.400037 0.869193 -0.290644 -0.389426 0.876525 -0.282934 -0.470271 0.869193 -0.152800 -0.457797 0.876525 -0.148747 -0.494473 0.869193 0.000000 -0.481357 0.876525 0.000000 -0.470271 0.869193 0.152800 -0.457798 0.876525 0.148747 -0.400037 0.869193 0.290644 -0.389426 0.876525 0.282934 -0.290644 0.869193 0.400037 -0.282934 0.876525 0.389426 -0.152800 0.869193 0.470271 -0.148747 0.876525 0.457798 0.000000 0.869193 0.494473 0.000000 0.876525 0.481357 0.152801 0.869193 0.470271 0.148748 0.876525 0.457798 0.290644 0.869193 0.400037 0.282934 0.876525 0.389426 0.400037 0.869193 0.290644 0.389426 0.876525 0.282934 0.470272 0.869193 0.152801 0.457798 0.876525 0.148747 0.494473 0.869193 0.000000 0.481357 0.876525 0.000000 0.999881 0.015449 0.000001 0.950943 0.015449 -0.308979 0.916803 0.265963 -0.297886 0.963982 0.265966 0.000001 0.694195 0.719787 0.000000 0.660217 0.719789 -0.214517 0.561614 0.719789 -0.408037 0.779879 0.265962 -0.566615 0.808921 0.015449 -0.587715 0.408037 0.719787 -0.561616 0.566615 0.265965 -0.779878 0.587715 0.015449 -0.808921 
						0.214518 0.719787 -0.660219 0.297887 0.265965 -0.916802 0.308980 0.015449 -0.950943 0.000000 0.719787 -0.694195 0.000000 0.265966 -0.963982 0.000000 0.015449 -0.999881 -0.214519 0.719786 -0.660220 -0.297887 0.265967 -0.916801 0.000000 0.265966 -0.963982 0.000000 0.015449 -0.999881 -0.308980 0.015449 -0.950943 -0.408039 0.719786 -0.561617 -0.566614 0.265968 -0.779878 -0.587715 0.015449 -0.808920 -0.561616 0.719786 -0.408038 -0.779878 0.265969 -0.566614 -0.808921 0.015449 -0.587715 -0.660219 0.719787 -0.214518 -0.916802 0.265967 -0.297887 -0.950943 0.015449 -0.308980 -0.694195 0.719787 0.000000 -0.963982 0.265966 0.000000 -0.999881 0.015449 0.000000 -0.660218 0.719788 0.214518 -0.916802 0.265967 0.297887 -0.950943 0.015449 0.308980 -0.561615 0.719788 0.408037 -0.779878 0.265967 0.566615 -0.808921 0.015449 0.587715 -0.408038 0.719787 0.561615 -0.566615 0.265966 0.779878 -0.587715 0.015449 0.808921 -0.214518 0.719788 0.660218 -0.297887 0.265966 0.916802 -0.308980 0.015449 0.950943 0.000000 0.719787 0.694195 0.000000 0.265965 0.963983 0.000000 0.015449 0.999881 0.214518 0.719786 0.660220 0.297887 0.265967 0.916802 0.308980 0.015449 0.950943 0.408039 0.719785 0.561617 0.566615 0.265968 0.779877 0.587715 0.015449 0.808920 0.561618 0.719784 0.408039 0.779877 0.265969 0.566614 0.808921 0.015449 0.587715 0.660221 0.719785 0.214518 0.916801 0.265969 0.297887 0.950943 0.015449 0.308980 0.702713 -0.711473 0.000000 0.668320 -0.711473 -0.217150 0.668320 -0.711473 -0.217150 0.702713 -0.711473 0.000001 0.568507 -0.711473 -0.413045 0.568507 -0.711473 -0.413045 0.413044 -0.711473 -0.568507 0.413044 -0.711473 -0.568507 0.217150 -0.711473 -0.668320 0.217150 -0.711473 -0.668320 -0.000000 -0.711473 -0.702713 0.000000 -0.711473 -0.702713 -0.217150 -0.711473 -0.668320 -0.000000 -0.711473 -0.702713 
						0.000000 -0.711473 -0.702713 -0.217150 -0.711473 -0.668320 -0.413045 -0.711473 -0.568507 -0.413045 -0.711473 -0.568507 -0.568507 -0.711473 -0.413044 -0.568507 -0.711473 -0.413044 -0.668320 -0.711473 -0.217150 -0.668320 -0.711473 -0.217150 -0.702713 -0.711473 -0.000000 -0.702713 -0.711473 -0.000000 -0.668320 -0.711473 0.217150 -0.668320 -0.711473 0.217150 -0.568507 -0.711473 0.413045 -0.568507 -0.711473 0.413045 -0.413044 -0.711473 0.568507 -0.413044 -0.711473 0.568507 -0.217150 -0.711473 0.668320 -0.217150 -0.711473 0.668320 0.000000 -0.711473 0.702713 0.000000 -0.711473 0.702713 0.217150 -0.711473 0.668320 0.217150 -0.711473 0.668320 0.413045 -0.711473 0.568507 0.413045 -0.711473 0.568507 0.568507 -0.711473 0.413045 0.568507 -0.711473 0.413045 0.668321 -0.711472 0.217151 0.668321 -0.711472 0.217151 0.000000 -1.000000 0.000000 0.000000 -1.000000 0.000000 0.000000 -1.000000 0.000000 0.000000 -1.000000 0.000000 0.000000 -1.000000 0.000000 0.000000 -1.000000 0.000000 0.000000 -1.000000 0.000000 0.000000 -1.000000 0.000000 0.000000 -1.000000 0.000000 0.000000 -1.000000 0.000000 0.000000 -1.000000 0.000000 0.000000 -1.000000 0.000000 0.000000 -1.000000 0.000000 0.000000 -1.000000 0.000000 0.000000 -1.000000 0.000000 0.000000 -1.000000 0.000000 0.000000 -1.000000 0.000000 0.000000 -1.000000 0.000000 0.000000 -1.000000 0.000000 0.000000 -1.000000 0.000000 0.000000 -1.000000 0.000000 0.951057 0.000000 -0.309016 0.809017 0.000000 -0.587785 0.587785 0.000000 -0.809017 0.309017 0.000000 -0.951057 0.000000 0.000000 -1.000000 0.000000 0.000000 -1.000000 -0.309017 0.000000 -0.951056 -0.587785 0.000000 -0.809017 -0.809017 0.000000 -0.587785 -0.951057 0.000000 -0.309017 -1.000000 0.000000 0.000000 -0.951057 0.000000 0.309017 -0.809017 0.000000 0.587785 -0.587785 0.000000 0.809017 -0.309017 0.000000 0.951057 
						0.000000 0.000000 1.000000 0.309017 0.000000 0.951057 0.587785 0.000000 0.809017 0.809017 0.000000 0.587785 0.951056 0.000000 0.309017 1.000000 0.000000 0.000001 0.941282 0.143007 -0.305840 0.951057 0.000000 -0.309016 0.809017 0.000000 -0.587785 0.800702 0.143007 -0.581744 0.587785 0.000000 -0.809017 0.581743 0.143007 -0.800702 0.309017 0.000000 -0.951057 0.305841 0.143007 -0.941281 0.000000 0.000000 -1.000000 0.000000 0.143007 -0.989722 -0.309017 0.000000 -0.951056 -0.305841 0.143007 -0.941281 -0.587786 0.000000 -0.809017 -0.581744 0.143007 -0.800701 -0.809017 0.000000 -0.587785 -0.800702 0.143007 -0.581744 -0.951057 -0.000000 -0.309017 -0.941281 0.143007 -0.305841 -1.000000 0.000000 0.000000 -0.989722 0.143008 0.000000 -0.951057 0.000000 0.309016 -0.941281 0.143008 0.305840 -0.809017 0.000000 0.587785 -0.800702 0.143008 0.581744 -0.587785 0.000000 0.809017 -0.581744 0.143007 0.800702 -0.309017 -0.000001 0.951057 -0.305840 0.143007 0.941281 0.000000 0.000000 1.000000 0.000000 0.143007 0.989722 0.309017 0.000000 0.951056 0.305841 0.143008 0.941281 0.587786 0.000000 0.809017 0.581744 0.143007 0.800701 0.809017 0.000000 0.587785 0.800702 0.143007 0.581744 0.951057 0.000000 0.309017 0.941281 0.143007 0.305841 1.000000 0.000000 0.000001 0.989722 0.143007 0.000001 0.000000 1.000000 0.000000 0.185200 0.980857 -0.060175 0.157541 0.980857 -0.114460 0.000000 1.000000 0.000001 0.114460 0.980857 -0.157540 0.000000 1.000000 0.000000 0.060176 0.980856 -0.185201 0.000001 1.000000 -0.000001 0.000001 0.980857 -0.194731 0.000001 1.000000 -0.000001 -0.060176 0.980857 -0.185200 -0.000001 1.000000 0.000000 -0.114461 0.980856 -0.157541 -0.000001 1.000000 0.000000 -0.157541 0.980857 -0.114460 0.000000 1.000000 0.000000 -0.185200 0.980857 -0.060175 0.000000 1.000000 0.000000 
						-0.194731 0.980857 0.000000 0.000000 1.000000 0.000000 -0.185200 0.980857 0.060175 0.000000 1.000000 0.000000 -0.157541 0.980856 0.114461 0.000000 1.000000 0.000000 -0.114460 0.980857 0.157541 0.000000 1.000000 0.000001 -0.060175 0.980857 0.185200 0.000000 1.000000 0.000001 -0.000001 0.980857 0.194731 -0.000001 1.000000 -0.000001 0.060175 0.980857 0.185200 0.000000 1.000000 0.000000 0.114460 0.980857 0.157541 0.000001 1.000000 0.000000 0.157541 0.980857 0.114460 0.000000 1.000000 0.000000 0.185200 0.980857 0.060175 0.000000 1.000000 0.000000 0.194731 0.980857 0.000000 0.000000 1.000000 0.000000 0.877052 0.386744 -0.284971 0.922187 0.386743 0.000001 0.378651 0.925539 0.000000 0.360119 0.925539 -0.117009 0.306335 0.925539 -0.222566 0.746065 0.386744 -0.542048 0.222566 0.925539 -0.306335 0.542047 0.386743 -0.746066 0.117010 0.925540 -0.360118 0.284972 0.386743 -0.877052 0.000000 0.925540 -0.378651 0.000000 0.386743 -0.922188 -0.117010 0.925540 -0.360118 -0.284972 0.386744 -0.877052 -0.222566 0.925539 -0.306335 -0.542049 0.386744 -0.746064 -0.306335 0.925540 -0.222565 -0.746065 0.386744 -0.542048 -0.360118 0.925540 -0.117009 -0.877052 0.386744 -0.284971 -0.378651 0.925540 0.000000 -0.922187 0.386744 0.000000 -0.360119 0.925539 0.117010 -0.877052 0.386745 0.284971 -0.306335 0.925539 0.222566 -0.746065 0.386744 0.542048 -0.222565 0.925540 0.306334 -0.542048 0.386744 0.746065 -0.117010 0.925540 0.360118 -0.284971 0.386743 0.877053 0.000000 0.925539 0.378652 0.000000 0.386744 0.922187 0.117010 0.925540 0.360118 0.284972 0.386744 0.877052 0.222566 0.925539 0.306335 0.542048 0.386744 0.746065 0.306335 0.925539 0.222566 0.746065 0.386744 0.542048 0.360119 0.925539 0.117010 0.877052 0.386744 0.284971 
					</float_array>
					<technique_common>
						<accessor count="574" offset="0" source="#meshId0-normals-array" stride="3">
							<param name="X" type="float" />
							<param name="Y" type="float" />
							<param name="Z" type="float" />
						</accessor>
					</technique_common>
				</source>
				<source id="meshId0-tangents" name="meshId0-tangents">
					<float_array id="meshId0-tangents-array" count="1722"> 
						-0.316036 0.146944 -0.937299 -0.316593 0.084997 -0.944746 -0.592915 0.081584 -0.801121 -0.589869 0.158002 -0.791890 -0.811416 0.066435 -0.580680 -0.805692 0.158148 -0.570832 -0.951632 0.035593 -0.305172 -0.944742 0.141006 -0.295939 -0.999985 0.005504 0.000593 -0.990250 0.138920 0.010331 -0.998812 -0.048588 -0.003613 -0.998831 0.048058 0.005178 -0.951070 -0.000395 0.308977 -0.948533 -0.100382 0.300346 -0.810975 -0.042748 0.583517 -0.807782 -0.130220 0.574919 -0.592347 -0.068240 0.802788 -0.590370 -0.140752 0.794766 -0.316249 -0.080465 0.945258 -0.315828 -0.138841 0.938603 -0.008885 -0.082467 0.996554 -0.009544 -0.128331 0.991685 0.300245 -0.076634 0.950779 0.299183 -0.111595 0.947648 0.580867 -0.064959 0.811402 0.579949 -0.090190 0.809645 0.804935 -0.048962 0.591340 0.804422 -0.065350 0.590453 0.949625 -0.030003 0.311950 0.949491 -0.038030 0.311481 0.999956 -0.009307 0.001003 0.999959 -0.009050 0.000673 0.950587 0.012012 -0.310225 0.950377 0.020662 -0.310412 0.806498 0.032821 -0.590326 0.805792 0.050255 -0.590062 0.582454 0.051948 -0.811202 0.581201 0.078856 -0.809931 0.301314 0.068092 -0.951091 0.299831 0.105401 -0.948152 -0.008589 0.079728 -0.996780 -0.009566 0.128649 -0.991644 -0.158732 0.322408 -0.933197 -0.221673 0.287065 -0.931909 -0.469961 0.353879 -0.808644 -0.387462 0.405998 -0.827670 -0.656090 0.430658 -0.619742 -0.553449 0.500468 -0.665752 -0.758287 0.519916 -0.393305 -0.638638 0.603189 -0.477811 -0.770828 0.615212 -0.165340 -0.647172 0.701308 -0.298891 -0.675848 -0.678030 0.288972 -0.820353 -0.552260 0.148424 -0.777820 -0.491550 0.391630 -0.651493 -0.590505 0.476299 -0.666831 -0.411609 0.621220 -0.562410 -0.489429 0.666450 -0.474489 -0.343880 0.810313 -0.391064 -0.400505 0.828652 -0.222328 -0.285228 0.932317 -0.157974 -0.323840 0.932830 0.062603 -0.232938 0.970474 0.109863 -0.257779 0.959938 
						0.350582 -0.185011 0.918076 0.382739 -0.200139 0.901918 0.612002 -0.139910 0.778382 0.631322 -0.148688 0.761134 0.820208 -0.096440 0.563877 0.829496 -0.101439 0.549224 0.954047 -0.053753 0.294795 0.956709 -0.056588 0.285490 0.999935 -0.011041 -0.002968 0.999907 -0.012572 -0.005359 0.953210 0.032378 -0.300569 0.954706 0.032122 -0.295810 0.818618 0.077136 -0.569135 0.825826 0.079041 -0.558358 0.609880 0.123989 -0.782735 0.626643 0.129733 -0.768432 0.348396 0.173798 -0.921094 0.378008 0.185939 -0.906938 0.061193 0.227688 -0.971809 0.106355 0.249544 -0.962505 0.795426 -0.604818 -0.038627 0.741806 -0.664929 -0.087141 0.503533 -0.863791 -0.017885 0.605625 -0.791918 0.078003 0.322535 -0.943840 0.071673 0.459774 -0.868009 0.187530 0.873250 -0.486473 -0.027900 0.757107 -0.645142 0.102865 0.661443 -0.719266 0.212485 0.946311 -0.317576 -0.060338 0.903355 -0.426849 0.041823 0.863259 -0.488915 0.125480 0.985765 -0.113012 -0.124482 0.984368 -0.153617 -0.086148 0.982111 -0.180287 -0.054363 0.975133 0.105092 -0.195117 0.962978 0.141972 -0.229168 0.951581 0.172349 -0.254538 0.918571 0.311100 -0.243811 0.847803 0.418229 -0.326058 0.778042 0.501481 -0.378374 0.839209 0.481959 -0.251881 0.689842 0.639508 -0.339334 0.550098 0.746601 -0.374138 0.768138 0.602164 -0.217629 0.552672 0.788383 -0.270196 0.367912 0.892296 -0.261626 0.731451 0.664043 -0.155002 0.483694 0.862505 -0.148746 0.287403 0.953135 -0.094513 0.741806 0.664929 -0.087137 0.503534 0.863790 -0.017883 0.322535 0.943840 0.071678 0.795424 0.604821 -0.038626 0.605626 0.791916 0.078013 0.459776 0.868006 0.187543 0.873254 0.486467 -0.027892 0.757112 0.645135 0.102871 0.661443 0.719267 0.212481 0.946316 0.317562 -0.060327 0.903360 0.426839 0.041825 0.863265 0.488906 0.125480 0.985764 0.113013 -0.124486 0.984371 0.153600 -0.086140 
						0.982116 0.180259 -0.054355 0.975134 -0.105108 -0.195107 0.962975 -0.141985 -0.229169 0.951578 -0.172353 -0.254545 0.918572 -0.311096 -0.243811 0.847806 -0.418225 -0.326057 0.778042 -0.501487 -0.378366 0.839209 -0.481951 -0.251896 0.689842 -0.639507 -0.339338 0.550106 -0.746585 -0.374158 0.768137 -0.602164 -0.217632 0.552671 -0.788386 -0.270190 0.367907 -0.892306 -0.261600 0.731451 -0.664043 -0.155004 0.483695 -0.862504 -0.148745 0.287404 -0.953135 -0.094516 0.984484 -0.070682 -0.160610 0.985090 -0.063865 -0.159745 0.986879 0.000000 -0.161463 0.985888 -0.050796 -0.159512 0.986580 -0.032763 -0.159958 0.986907 -0.011534 -0.160880 0.986726 0.010811 -0.162031 0.986122 0.032107 -0.162889 0.985321 0.050273 -0.163144 0.984633 0.063530 -0.162671 0.984310 0.070566 -0.161725 0.984485 0.070682 -0.160602 0.985088 0.063866 -0.159759 0.985889 0.050795 -0.159505 0.986585 0.032760 -0.159929 0.986906 0.011534 -0.160885 0.986724 -0.010811 -0.162044 0.986122 -0.032107 -0.162890 0.985324 -0.050273 -0.163121 0.984633 -0.063530 -0.162671 0.984309 -0.070566 -0.161727 0.910284 -0.398955 -0.110532 0.888122 -0.440607 -0.130783 0.959741 -0.235629 -0.152890 0.966096 -0.212905 -0.146050 0.941953 -0.318458 -0.106346 0.974933 -0.169316 -0.144357 0.971124 -0.206206 -0.119991 0.982876 -0.109196 -0.148429 0.986541 -0.072872 -0.146381 0.986894 -0.038464 -0.156715 0.982155 0.068081 -0.175320 0.985462 0.035982 -0.166044 0.959647 0.202028 -0.195606 0.979124 0.106932 -0.172863 0.927797 0.315313 -0.199424 0.970297 0.167485 -0.174563 0.898856 0.397026 -0.185549 0.962344 0.211707 -0.170510 0.883766 0.439959 -0.159355 0.958308 0.235210 -0.162244 0.888123 0.440607 -0.130778 0.959743 0.235628 -0.152885 0.910283 0.398958 -0.110532 0.966095 0.212906 -0.146055 0.941954 0.318456 -0.106344 0.974933 0.169315 -0.144352 0.971127 0.206197 -0.119981 
						0.982879 0.109190 -0.148413 0.986540 0.072872 -0.146383 0.986894 0.038466 -0.156717 0.982153 -0.068081 -0.175330 0.985460 -0.035982 -0.166054 0.959652 -0.202040 -0.195571 0.979128 -0.106937 -0.172837 0.927795 -0.315306 -0.199446 0.970299 -0.167489 -0.174547 0.898854 -0.397022 -0.185566 0.962341 -0.211706 -0.170527 0.883765 -0.439959 -0.159357 0.958308 -0.235210 -0.162244 0.999895 -0.012338 -0.007562 0.955790 0.027644 -0.292746 0.959094 -0.051670 0.278333 0.837423 -0.091969 0.538762 0.647251 -0.134889 0.750247 0.408127 -0.182330 0.894533 0.144899 -0.236466 0.960775 -0.114574 -0.299792 0.947100 -0.342006 -0.374973 0.861642 -0.511245 -0.464378 0.723175 -0.600841 -0.568773 0.561683 -0.623796 -0.666422 0.408362 -0.589053 0.578562 -0.564166 -0.603732 0.679724 -0.416512 -0.502143 0.473620 -0.723559 -0.338372 0.379326 -0.861171 -0.116125 0.297631 -0.947592 0.139601 0.227818 -0.963645 0.400866 0.167997 -0.900602 0.639837 0.116026 -0.759702 0.831461 0.069866 -0.551172 0.999950 -0.009940 -0.000665 0.951269 0.026307 -0.307237 0.951009 -0.045480 0.305799 0.809556 -0.080128 0.581548 0.590110 -0.113698 0.799277 0.314983 -0.146080 0.937788 0.011857 -0.177190 0.984105 -0.289115 -0.207044 0.934636 -0.558367 -0.235816 0.795372 -0.769789 -0.264041 0.581125 -0.902999 -0.293221 0.314029 -0.956494 -0.291101 0.019479 -0.889058 0.334622 -0.312416 -0.915059 0.402419 -0.026926 -0.762871 0.289350 -0.578190 -0.555607 0.249504 -0.793126 -0.288516 0.211632 -0.933793 0.011668 0.174364 -0.984612 0.314814 0.137211 -0.939183 0.590239 0.100080 -0.801001 0.809880 0.063057 -0.583196 0.999889 -0.012236 -0.008544 0.955829 0.024018 -0.292939 0.959777 -0.047965 0.276635 0.839467 -0.084757 0.536760 0.651199 -0.124298 0.748659 0.414299 -0.168485 0.894410 0.153302 -0.219572 0.963476 -0.104344 -0.280216 0.954249 -0.330759 -0.353412 0.875042 
						-0.500090 -0.441926 0.744723 -0.591062 -0.546528 0.593257 -0.614130 -0.647093 0.451791 -0.582977 0.552920 -0.595330 -0.600102 0.655883 -0.457926 -0.496034 0.445805 -0.745123 -0.331567 0.352526 -0.875093 -0.109464 0.273807 -0.955535 0.145139 0.207878 -0.967327 0.404736 0.152243 -0.901671 0.641995 0.104451 -0.759561 0.832260 0.062343 -0.550869 0.872885 -0.474901 -0.111988 0.862638 -0.489280 -0.128304 0.888852 -0.445248 -0.108148 0.899333 -0.428180 -0.088667 0.928089 -0.357796 -0.103119 0.936632 -0.339938 -0.084635 0.965690 -0.232433 -0.115831 0.970728 -0.217711 -0.101433 0.986647 -0.080535 -0.141566 0.988446 -0.072961 -0.132858 0.982098 0.080510 -0.170300 0.982741 0.079545 -0.167010 0.954041 0.231351 -0.190478 0.955803 0.223828 -0.190636 0.914147 0.355710 -0.194437 0.918171 0.345137 -0.194530 0.877954 0.443178 -0.181080 0.884365 0.431796 -0.177346 0.858555 0.488421 -0.155975 0.867157 0.476213 -0.145806 0.862664 0.489269 -0.128164 0.872882 0.474903 -0.112006 0.888878 0.445224 -0.108040 0.899332 0.428181 -0.088670 0.928069 0.357826 -0.103195 0.936648 0.339911 -0.084563 0.965708 0.232396 -0.115756 0.970735 0.217696 -0.101402 0.986646 0.080538 -0.141572 0.988434 0.072998 -0.132925 0.982096 -0.080504 -0.170310 0.982738 -0.079531 -0.167037 0.954042 -0.231351 -0.190476 0.955804 -0.223832 -0.190626 0.914147 -0.355713 -0.194429 0.918171 -0.345135 -0.194533 0.877942 -0.443150 -0.181207 0.884365 -0.431797 -0.177342 0.858576 -0.488433 -0.155823 0.867157 -0.476212 -0.145809 0.002754 -0.178312 0.983970 0.305023 -0.213569 0.928089 0.356659 -0.209798 0.910373 0.048354 -0.175260 0.983334 0.712010 -0.686695 -0.146599 0.723313 -0.686264 -0.076552 0.780729 -0.624299 -0.026703 0.623133 -0.244409 0.742947 0.572392 -0.248911 0.781288 0.864450 -0.502467 -0.015921 0.819675 -0.278590 0.500520 0.778221 -0.284240 0.559982 
						0.943506 -0.327488 -0.050472 0.928847 -0.302335 0.214093 0.904984 -0.312245 0.288974 0.986390 -0.114139 -0.118347 0.960019 -0.269852 -0.074453 0.950319 -0.311240 -0.004809 0.974630 0.113561 -0.192871 0.928729 0.302828 -0.213911 0.958869 0.273624 0.075494 0.948187 0.317676 0.004908 0.906162 0.308393 -0.289420 0.912922 0.327624 -0.243384 0.819905 0.276046 -0.501553 0.779078 0.280497 -0.560677 0.827014 0.503367 -0.250339 0.623023 0.242674 -0.743607 0.572715 0.246570 -0.781793 0.750832 0.625268 -0.212818 0.356439 0.208635 -0.910726 0.305108 0.211978 -0.928426 0.711981 0.686667 -0.146873 0.048065 0.174208 -0.983535 0.002736 0.177047 -0.984199 0.723367 0.686237 -0.076288 -0.269116 0.139640 -0.952931 -0.303802 0.141929 -0.942104 0.780785 0.624237 -0.026512 -0.560912 0.104791 -0.821217 -0.583106 0.106556 -0.805378 0.864399 0.502550 -0.016063 -0.795570 0.069816 -0.601826 -0.806327 0.071040 -0.587188 0.943540 0.327406 -0.050372 -0.947480 0.034717 -0.317926 -0.950292 0.035392 -0.309343 0.986390 0.114140 -0.118348 -1.000000 -0.000442 0.000122 -1.000000 -0.000328 0.000005 0.974630 -0.113552 -0.192879 -0.947374 -0.035591 0.318145 -0.950266 -0.036061 0.309346 0.912922 -0.327625 -0.243383 -0.795373 -0.070694 0.601983 -0.806278 -0.071775 0.587166 0.827012 -0.503372 -0.250334 -0.560653 -0.105682 0.821279 -0.583042 -0.107403 0.805312 0.750825 -0.625201 -0.213037 -0.268837 -0.140541 0.952877 -0.303744 -0.142919 0.941973 -0.125439 -0.123895 0.984335 0.159404 -0.148161 0.976032 0.159289 -0.148269 0.976034 -0.125440 -0.123894 0.984335 0.428746 -0.172267 0.886849 0.428998 -0.172022 0.886774 0.660178 -0.196098 0.725059 0.660529 -0.195720 0.724841 0.829303 -0.226669 0.510762 0.829651 -0.226219 0.510396 0.893498 -0.315566 0.319500 0.893834 -0.315095 0.319023 0.830275 0.225411 -0.509738 0.897346 0.310127 -0.313993 
						0.896417 0.311450 -0.315333 0.829023 0.227031 -0.511056 0.660135 0.196144 -0.725086 0.658555 0.197841 -0.726061 0.429005 0.172015 -0.886773 0.427479 0.173494 -0.887221 0.159654 0.147924 -0.976027 0.158391 0.149118 -0.976051 -0.125131 0.123591 -0.984412 -0.126064 0.124512 -0.984177 -0.401325 0.099069 -0.910562 -0.401929 0.099740 -0.910223 -0.645410 0.074382 -0.760206 -0.645741 0.074835 -0.759881 -0.836532 0.049629 -0.545666 -0.836670 0.049898 -0.545429 -0.958225 0.024805 -0.284939 -0.958256 0.024925 -0.284822 -1.000000 -0.000068 -0.000069 -1.000000 -0.000063 -0.000064 -0.958258 -0.024932 0.284815 -0.958277 -0.025003 0.284745 -0.836613 -0.049788 0.545527 -0.836670 -0.049898 0.545430 -0.645562 -0.074590 0.760057 -0.645643 -0.074701 0.759977 -0.401539 -0.099306 0.910442 -0.401605 -0.099379 0.910405 0.157730 0.000000 -0.987482 0.157728 0.000000 -0.987483 0.157728 0.000000 -0.987483 0.157730 0.000000 -0.987482 0.157731 0.000000 -0.987482 0.157732 0.000000 -0.987482 0.157734 0.000000 -0.987482 0.157730 0.000000 -0.987482 0.157722 0.000000 -0.987484 0.157729 0.000000 -0.987482 0.157732 0.000000 -0.987482 0.157727 0.000000 -0.987483 0.157730 0.000000 -0.987482 0.157726 0.000000 -0.987483 0.157723 0.000000 -0.987483 0.157726 0.000000 -0.987483 0.157724 0.000000 -0.987483 0.157723 0.000000 -0.987483 0.157732 0.000000 -0.987482 0.157728 0.000000 -0.987482 0.157722 0.000000 -0.987484 0.302122 -0.210058 0.929838 0.570006 -0.244088 0.784547 0.777083 -0.278186 0.564583 0.901056 -0.319976 0.292770 0.943833 -0.330422 0.000000 0.942822 0.333298 0.000000 0.903570 0.312037 -0.293588 0.776876 0.279069 -0.564433 0.569881 0.244934 -0.784374 0.302094 0.210478 -0.929752 0.000000 0.175736 -0.984437 -0.305939 0.140790 -0.941584 -0.584494 0.105670 -0.804488 -0.807007 0.070443 -0.586325 -0.950469 0.035146 -0.308826 
						-1.000000 -0.000183 0.000000 -0.950458 -0.035476 0.308822 -0.806992 -0.070718 0.586313 -0.584483 -0.105850 0.804472 -0.305938 -0.140818 0.941580 -0.000001 -0.175581 0.984465 0.095880 -0.981792 -0.163984 -0.052837 -0.985273 -0.162618 0.062267 -0.994373 0.085704 0.215719 -0.974773 0.057289 0.311529 -0.922887 0.226339 0.444173 -0.880533 0.165445 0.618940 -0.759256 0.201106 0.700117 -0.703777 0.120558 0.866727 -0.498783 0.000000 0.888060 -0.455002 -0.065744 0.937494 -0.168276 -0.304611 0.932211 -0.155957 -0.326588 0.796218 0.177173 -0.578487 0.811821 0.162842 -0.560739 0.513217 0.487473 -0.706384 0.572781 0.467238 -0.673507 0.210323 0.732637 -0.647308 0.310614 0.721825 -0.618456 0.000000 0.898973 -0.438003 0.129698 0.897604 -0.421290 -0.052838 0.985273 -0.162621 0.095879 0.981791 -0.163991 0.062268 0.994373 0.085705 0.215718 0.974774 0.057286 0.311522 0.922891 0.226334 0.444125 0.880565 0.165405 0.618931 0.759264 0.201104 0.700143 0.703749 0.120570 0.866738 0.498764 0.000000 0.888065 0.454992 -0.065743 0.937494 0.168278 -0.304610 0.932210 0.155960 -0.326589 0.796221 -0.177151 -0.578489 0.811821 -0.162847 -0.560738 0.513232 -0.487430 -0.706403 0.572778 -0.467252 -0.673499 0.210340 -0.732586 -0.647360 0.310620 -0.721796 -0.618486 0.000000 -0.898966 -0.438018 0.129696 -0.897600 -0.421300 0.891009 0.000000 -0.453986 0.871557 -0.192233 -0.451037 0.876773 -0.192262 -0.440799 0.891003 0.000000 -0.453998 0.884077 -0.172902 -0.434181 0.890978 0.000000 -0.454046 0.890698 -0.136517 -0.433612 0.890976 -0.000001 -0.454050 0.894104 -0.087213 -0.439285 0.890999 -0.000001 -0.454006 0.893046 -0.029983 -0.448966 0.891000 0.000001 -0.454003 0.887933 0.029895 -0.459000 0.891010 0.000001 -0.453983 0.880695 0.087120 -0.465603 0.891020 0.000000 -0.453964 0.874018 0.136417 -0.466350 0.891034 0.000000 -0.453937 
						0.870537 0.172829 -0.460755 0.891030 0.000000 -0.453945 0.871562 0.192234 -0.451027 0.891008 0.000000 -0.453987 0.876730 0.192265 -0.440883 0.891009 0.000000 -0.453986 0.884095 0.172899 -0.434145 0.891039 0.000000 -0.453926 0.890692 0.136518 -0.433625 0.891021 0.000000 -0.453963 0.894111 0.087210 -0.439272 0.891027 0.000000 -0.453950 0.893050 0.029982 -0.448957 0.891010 0.000000 -0.453983 0.887929 -0.029892 -0.459009 0.891000 -0.000001 -0.454003 0.880682 -0.087115 -0.465629 0.890991 0.000000 -0.454021 0.874030 -0.136421 -0.466326 0.890989 0.000000 -0.454025 0.870512 -0.172824 -0.460804 0.890979 0.000000 -0.454044 0.312717 -0.909932 -0.272455 0.344858 -0.822310 -0.452636 0.826061 -0.337953 -0.451011 0.822420 -0.374170 -0.428511 0.832515 -0.373860 -0.408836 0.393452 -0.912775 -0.109713 0.852404 -0.337237 -0.399597 0.558505 -0.829153 -0.024037 0.874601 -0.267824 -0.404158 0.746912 -0.663064 -0.049696 0.890599 -0.172207 -0.420926 0.885507 -0.428472 -0.179691 0.894310 -0.059490 -0.443476 0.919021 -0.149768 -0.364650 0.884255 0.059321 -0.463223 0.834557 0.143708 -0.531848 0.864288 0.172436 -0.472516 0.665805 0.421614 -0.615585 0.842009 0.268462 -0.467920 0.478795 0.655351 -0.584183 0.826066 0.337955 -0.451001 0.344860 0.822314 -0.452627 0.822417 0.374170 -0.428518 0.312713 0.909930 -0.272467 0.832439 0.373870 -0.408983 0.393452 0.912775 -0.109712 0.852395 0.337240 -0.399615 0.558418 0.829208 -0.024129 0.874550 0.267853 -0.404249 0.746963 0.663009 -0.049656 0.890589 0.172214 -0.420943 0.885511 0.428465 -0.179688 0.894310 0.059490 -0.443476 0.919019 0.149775 -0.364652 0.884254 -0.059321 -0.463223 0.834561 -0.143734 -0.531835 0.864293 -0.172439 -0.472506 0.665806 -0.421697 -0.615528 0.842059 -0.268496 -0.467810 0.478795 -0.655348 -0.584187 
					</float_array>
					<technique_common>
						<accessor count="574" offset="0" source="#meshId0-tangents-array" stride="3">
							<param name="X" type="float" />
							<param name="Y" type="float" />
							<param name="Z" type="float" />
						</accessor>
					</technique_common>
				</source>
				<source id="meshId0-bitangents" name="meshId0-bitangents">
					<float_array id="meshId0-bitangents-array" count="1722"> 
						-0.024231 0.986361 0.162806 -0.075090 0.990606 0.114286 -0.038141 0.990893 0.129138 0.033885 0.984650 0.171221 -0.008766 0.992024 0.125746 0.085256 0.984626 0.152455 0.000965 0.993608 0.112878 0.111787 0.987227 0.113520 0.005536 0.994231 0.107122 0.139304 0.987523 0.073442 -0.048722 0.996062 0.074077 0.048336 0.993084 0.106999 0.032725 0.994246 0.102003 -0.072931 0.992181 0.101282 0.028123 0.993326 0.111856 -0.062422 0.988707 0.136239 0.046117 0.991901 0.118344 -0.023561 0.987263 0.157341 0.076537 0.990984 0.109964 0.026824 0.987534 0.155105 0.106754 0.990820 0.082944 0.073547 0.988954 0.128685 0.125395 0.991288 0.040301 0.104671 0.990982 0.083652 0.124882 0.992121 -0.009974 0.112913 0.993159 0.029753 0.102730 0.993039 -0.057613 0.096514 0.995103 -0.021353 0.061787 0.993793 -0.092509 0.059170 0.996521 -0.058700 0.009361 0.994202 -0.107119 0.009075 0.997205 -0.074162 -0.044591 0.994173 -0.098140 -0.042618 0.997032 -0.064118 -0.089638 0.993704 -0.067214 -0.084307 0.995979 -0.030304 -0.117257 0.992888 -0.020609 -0.106292 0.994123 0.020516 -0.122804 0.991911 0.032109 -0.102800 0.991660 0.077730 -0.106778 0.991044 0.080189 -0.073544 0.988913 0.129004 0.457532 0.861588 0.219844 0.327542 0.922079 0.206125 0.410759 0.898557 0.154506 0.544040 0.825498 0.150248 0.497321 0.864390 0.074175 0.633491 0.771890 0.053626 0.579605 0.813832 -0.041653 0.715072 0.694582 -0.078919 0.637043 0.744413 -0.200065 0.762344 0.595356 -0.253737 -0.737041 0.621737 -0.264978 -0.571858 0.792240 -0.212918 -0.553118 0.831273 -0.055190 -0.703383 0.705397 -0.087567 -0.482822 0.873621 0.060574 -0.625548 0.778936 0.044143 -0.405514 0.902431 0.145520 -0.541452 0.828177 0.144749 -0.327099 0.922649 0.204267 -0.457795 0.861051 0.221394 -0.251883 0.937217 0.241204 -0.376363 0.883081 0.280214 
						-0.183070 0.947843 0.260919 -0.296720 0.897901 0.325164 -0.122608 0.955542 0.268153 -0.218019 0.907840 0.358182 -0.071005 0.960903 0.267626 -0.139840 0.914325 0.380071 -0.027143 0.964234 0.263659 -0.062422 0.918194 0.391183 0.011434 0.965668 0.259528 0.013666 0.919850 0.392032 0.048273 0.965188 0.257064 0.087874 0.919375 0.383442 0.087451 0.962646 0.256254 0.160089 0.916534 0.366520 0.132773 0.957738 0.255163 0.231129 0.910742 0.342240 0.187200 0.949963 0.250052 0.302725 0.900948 0.310886 0.252229 0.938506 0.235767 0.377369 0.885443 0.271263 -0.267559 -0.293262 -0.917829 -0.202632 -0.098374 -0.974301 -0.241562 -0.120879 -0.962827 -0.367843 -0.365530 -0.855032 -0.258550 -0.160687 -0.952540 -0.434343 -0.403998 -0.805066 -0.285198 -0.463845 -0.838755 -0.404916 -0.586974 -0.701074 -0.495777 -0.631912 -0.595729 -0.247690 -0.592414 -0.766613 -0.333622 -0.760622 -0.556912 -0.408962 -0.823175 -0.393870 -0.168129 -0.662598 -0.729860 -0.176124 -0.858573 -0.481490 -0.188305 -0.940293 -0.283531 -0.077283 -0.663899 -0.743818 0.005674 -0.860575 -0.509293 0.083451 -0.941781 -0.325707 -0.011345 -0.595839 -0.803024 0.135627 -0.765396 -0.629106 0.279195 -0.815581 -0.506832 0.003924 -0.468534 -0.883437 0.161876 -0.593106 -0.788684 0.312144 -0.599368 -0.737106 -0.036056 -0.298675 -0.953674 0.080329 -0.373093 -0.924310 0.188465 -0.347077 -0.918705 -0.114763 -0.104187 -0.987914 -0.072757 -0.129737 -0.988875 -0.027285 -0.090489 -0.995524 -0.202629 0.098377 -0.974301 -0.241562 0.120882 -0.962827 -0.258550 0.160692 -0.952539 -0.267556 0.293258 -0.917831 -0.367831 0.365533 -0.855035 -0.434332 0.404006 -0.805068 -0.285190 0.463852 -0.838754 -0.404910 0.586981 -0.701071 -0.495781 0.631910 -0.595728 -0.247674 0.592421 -0.766612 -0.333613 0.760628 -0.556909 -0.408954 0.823180 -0.393866 -0.168133 0.662599 -0.729859 -0.176106 0.858577 -0.481490 
						-0.188276 0.940299 -0.283532 -0.077264 0.663899 -0.743820 0.005685 0.860574 -0.509294 0.083452 0.941780 -0.325709 -0.011345 0.595842 -0.803021 0.135627 0.765399 -0.629103 0.279205 0.815577 -0.506832 0.003910 0.468543 -0.883432 0.161875 0.593109 -0.788681 0.312129 0.599388 -0.737095 -0.036058 0.298677 -0.953673 0.080332 0.373088 -0.924311 0.188475 0.347052 -0.918712 -0.114765 0.104189 -0.987914 -0.072756 0.129737 -0.988876 -0.027285 0.090492 -0.995523 -0.161761 -0.010833 -0.986771 -0.162020 -0.032164 -0.986263 -0.161463 0.000000 -0.986879 -0.162042 -0.050329 -0.985500 -0.161777 -0.063561 -0.984778 -0.161293 -0.070571 -0.984380 -0.160881 -0.070686 -0.984439 -0.160615 -0.063894 -0.984947 -0.160613 -0.050851 -0.985707 -0.160851 -0.032821 -0.986433 -0.161311 -0.011565 -0.986836 -0.161753 0.010832 -0.986772 -0.162034 0.032162 -0.986261 -0.162035 0.050331 -0.985501 -0.161748 0.063562 -0.984783 -0.161298 0.070572 -0.984379 -0.160894 0.070684 -0.984437 -0.160615 0.063895 -0.984947 -0.160590 0.050852 -0.985710 -0.160851 0.032819 -0.986433 -0.161313 0.011565 -0.986836 -0.203455 -0.198599 -0.958731 -0.177755 -0.066875 -0.981800 -0.165839 -0.036033 -0.985494 -0.171670 -0.107196 -0.979305 -0.210019 -0.311755 -0.926661 -0.172847 -0.167783 -0.970553 -0.194815 -0.395078 -0.897753 -0.168906 -0.211885 -0.962588 -0.163517 -0.439655 -0.883157 -0.161366 -0.235243 -0.958447 -0.128091 -0.440421 -0.888607 -0.153100 -0.235637 -0.959706 -0.102268 -0.397230 -0.912003 -0.147259 -0.213038 -0.965883 -0.095929 -0.314936 -0.944252 -0.146065 -0.169611 -0.974627 -0.111428 -0.202429 -0.972937 -0.150000 -0.109542 -0.982599 -0.142655 -0.071017 -0.987221 -0.157567 -0.038675 -0.986751 -0.177751 0.066878 -0.981800 -0.165834 0.036034 -0.985495 -0.203455 0.198595 -0.958731 -0.171675 0.107192 -0.979305 -0.210017 0.311758 -0.926661 -0.172843 0.167786 -0.970553 -0.194802 0.395083 -0.897754 
						-0.168889 0.211891 -0.962590 -0.163518 0.439655 -0.883157 -0.161369 0.235247 -0.958446 -0.128100 0.440423 -0.888604 -0.153110 0.235639 -0.959704 -0.102232 0.397224 -0.912009 -0.147232 0.213037 -0.965887 -0.095951 0.314943 -0.944248 -0.146049 0.169609 -0.974629 -0.111444 0.202436 -0.972934 -0.150017 0.109545 -0.982596 -0.142657 0.071018 -0.987221 -0.157567 0.038674 -0.986751 0.014471 0.852564 0.522423 0.130537 0.852205 0.506663 -0.103522 0.851086 0.514720 -0.218051 0.847677 0.483629 -0.324385 0.841915 0.431223 -0.419333 0.832930 0.361093 -0.501985 0.819207 0.277330 -0.573831 0.798210 0.183245 -0.638118 0.765775 0.079969 -0.698177 0.715100 -0.034380 -0.754698 0.635227 -0.164067 -0.781587 0.531882 -0.325919 0.763932 0.626324 -0.155325 0.797187 0.514774 -0.315438 0.704751 0.709014 -0.024991 0.640055 0.763627 0.084869 0.573519 0.799018 0.180682 0.503484 0.821654 0.267188 0.426281 0.835938 0.345676 0.338778 0.844722 0.414337 0.239781 0.849786 0.469435 0.009962 0.997719 0.066761 -0.004451 0.997422 0.071622 0.022741 0.996732 0.077516 0.025854 0.994546 0.101043 0.013317 0.991270 0.131177 -0.017571 0.987017 0.159650 -0.065704 0.981909 0.177586 -0.126239 0.976051 0.177169 -0.191402 0.969502 0.153075 -0.251936 0.962198 0.103459 -0.299214 0.953710 0.030120 -0.291752 0.954360 -0.063859 0.338393 0.939984 0.043816 0.403319 0.913018 -0.061093 0.272169 0.954892 0.118764 0.199280 0.966070 0.164307 0.127596 0.975066 0.181562 0.065737 0.982415 0.174754 0.020399 0.988289 0.151223 -0.005216 0.992737 0.120192 -0.011964 0.995774 0.091052 0.014924 0.819840 0.572398 0.148967 0.819579 0.553262 -0.120960 0.818527 0.561589 -0.251053 0.815537 0.521413 -0.368675 0.810454 0.455239 -0.469327 0.802433 0.368556 -0.551555 0.789984 0.267794 -0.617272 0.770561 0.158779 -0.671254 0.739855 0.045085 
						-0.719472 0.690642 -0.073300 -0.765801 0.611223 -0.199888 -0.789205 0.503545 -0.351565 0.771971 0.605446 -0.193639 0.799924 0.492042 -0.343536 0.722274 0.688145 -0.069108 0.670858 0.740277 0.044032 0.616384 0.772861 0.150850 0.553759 0.793141 0.253532 0.477599 0.805672 0.350416 0.384480 0.813251 0.436804 0.273997 0.817558 0.506483 -0.168800 -0.078571 -0.982514 -0.186283 -0.071473 -0.979893 -0.223410 -0.215077 -0.950700 -0.198866 -0.219922 -0.955032 -0.232762 -0.341299 -0.910679 -0.206565 -0.340803 -0.917161 -0.209986 -0.436437 -0.874887 -0.188576 -0.429309 -0.883251 -0.162871 -0.487870 -0.857588 -0.151574 -0.475795 -0.866397 -0.110162 -0.487874 -0.865935 -0.109973 -0.474738 -0.873229 -0.073014 -0.437012 -0.896487 -0.079933 -0.426152 -0.901113 -0.065618 -0.343473 -0.936867 -0.072859 -0.335537 -0.939205 -0.089675 -0.219308 -0.971526 -0.091220 -0.212735 -0.972842 -0.135572 -0.077125 -0.987761 -0.127803 -0.070185 -0.989313 -0.186160 0.071543 -0.979911 -0.168816 0.078562 -0.982512 -0.223309 0.215127 -0.950712 -0.198868 0.219921 -0.955032 -0.232840 0.341269 -0.910671 -0.206491 0.340829 -0.917168 -0.209904 0.436457 -0.874897 -0.188542 0.429317 -0.883255 -0.162877 0.487870 -0.857586 -0.151650 0.475790 -0.866387 -0.110174 0.487875 -0.865933 -0.110002 0.474741 -0.873224 -0.073011 0.437013 -0.896487 -0.079922 0.426149 -0.901116 -0.065610 0.343470 -0.936869 -0.072863 0.335538 -0.939205 -0.089790 0.219367 -0.971502 -0.091216 0.212733 -0.972843 -0.135440 0.077050 -0.987785 -0.127805 0.070186 -0.989313 0.015202 -0.983853 -0.178333 -0.051650 -0.976806 -0.207805 0.179630 -0.940876 -0.287202 0.261533 -0.947917 -0.181808 -0.105520 0.101768 -0.989196 -0.202317 -0.104622 -0.973716 -0.273958 -0.303569 -0.912575 0.059110 -0.932485 -0.356339 -0.134219 -0.968403 -0.210192 -0.293653 -0.478993 -0.827245 -0.084145 -0.922849 -0.375858 -0.221277 -0.958629 -0.179075 
						-0.252542 -0.612094 -0.749376 -0.220240 -0.915345 -0.337103 -0.292463 -0.949876 -0.110459 -0.164419 -0.684747 -0.709991 -0.279934 -0.925442 -0.255332 -0.311277 -0.950206 -0.014681 -0.063851 -0.684845 -0.725886 0.220740 -0.915181 -0.337220 0.283848 -0.924333 -0.255026 0.317714 -0.948074 -0.014649 0.288793 -0.951134 -0.109287 0.008815 -0.612022 -0.790792 0.081885 -0.923612 -0.374480 0.218238 -0.959731 -0.176888 0.025203 -0.478047 -0.877972 -0.060274 -0.932936 -0.354961 0.132835 -0.969002 -0.208303 -0.019053 -0.301573 -0.953253 -0.180073 -0.941134 -0.286078 0.051154 -0.977152 -0.206293 -0.105717 -0.101958 -0.989155 -0.261587 -0.948111 -0.180717 -0.015205 -0.984081 -0.177068 -0.202121 0.104808 -0.973736 -0.295045 -0.953815 -0.056446 -0.058408 -0.989756 -0.130273 -0.273794 0.303700 -0.912580 -0.277793 -0.958270 0.067460 -0.075067 -0.994187 -0.077187 -0.293801 0.478905 -0.827243 -0.214513 -0.961451 0.172036 -0.066538 -0.997354 -0.029295 -0.252417 0.612136 -0.749383 -0.116386 -0.963357 0.241656 -0.038435 -0.999254 0.003746 -0.164421 0.684747 -0.709991 0.000458 -0.963983 0.265965 0.000328 -0.999881 0.015449 -0.063862 0.684846 -0.725884 0.117246 -0.963325 0.241368 0.039071 -0.999230 0.003539 0.008816 0.612022 -0.790791 0.215241 -0.961386 0.171488 0.067131 -0.997301 -0.029727 0.025209 0.478045 -0.877973 0.278316 -0.958171 0.066697 0.075564 -0.994096 -0.077873 -0.019224 0.301717 -0.953204 0.295301 -0.953682 -0.057345 0.058712 -0.989614 -0.131215 -0.700328 -0.691705 -0.176309 -0.726594 -0.686917 0.014393 -0.726619 -0.686893 0.014239 -0.700328 -0.691705 -0.176309 -0.702123 -0.681271 0.207107 -0.701969 -0.681333 0.207425 -0.627343 -0.674797 0.388702 -0.626973 -0.674907 0.389108 -0.514881 -0.665152 0.540806 -0.514320 -0.665305 0.541151 -0.449068 -0.627873 0.635700 -0.448398 -0.628109 0.635939 0.513311 -0.665579 0.541771 0.441328 -0.630577 0.638438 
						0.443211 -0.629924 0.637777 0.515332 -0.665028 0.540528 0.627388 -0.674784 0.388652 0.629047 -0.674289 0.386827 0.701965 -0.681335 0.207434 0.702895 -0.680959 0.205508 0.726539 -0.686968 0.014729 0.726815 -0.686709 0.013032 0.700383 -0.691760 -0.175876 0.700216 -0.691594 -0.177187 0.626328 -0.695695 -0.351741 0.625941 -0.695599 -0.352619 0.510143 -0.698766 -0.501479 0.509724 -0.698717 -0.501971 0.360012 -0.700959 -0.615669 0.359691 -0.700939 -0.615879 0.186148 -0.702275 -0.687138 0.185985 -0.702271 -0.687186 0.000097 -0.702713 -0.711473 0.000090 -0.702713 -0.711473 -0.185976 -0.702271 -0.687189 -0.185879 -0.702268 -0.687218 -0.359823 -0.700948 -0.615792 -0.359691 -0.700940 -0.615878 -0.509950 -0.698744 -0.501705 -0.509849 -0.698732 -0.501825 -0.626190 -0.695662 -0.352052 -0.626147 -0.695652 -0.352148 0.987482 0.000000 0.157730 0.987483 0.000000 0.157728 0.987483 0.000000 0.157728 0.987482 0.000000 0.157730 0.987482 0.000000 0.157731 0.987482 0.000000 0.157732 0.987482 0.000000 0.157734 0.987482 0.000000 0.157730 0.987484 0.000000 0.157722 0.987482 0.000000 0.157729 0.987482 0.000000 0.157732 0.987483 0.000000 0.157727 0.987482 0.000000 0.157730 0.987483 0.000000 0.157726 0.987483 0.000000 0.157723 0.987483 0.000000 0.157726 0.987483 0.000000 0.157724 0.987483 0.000000 0.157723 0.987482 0.000000 0.157732 0.987482 0.000000 0.157728 0.987484 0.000000 0.157722 -0.064911 -0.977689 -0.199777 -0.143472 -0.969753 -0.197472 -0.225058 -0.960527 -0.163514 -0.304315 -0.947426 -0.098878 -0.330422 -0.943833 -0.000000 0.333298 -0.942822 0.000000 0.296765 -0.950070 -0.096425 0.225772 -0.960271 -0.164033 0.143968 -0.969540 -0.198155 0.065041 -0.977599 -0.200177 -0.000000 -0.984437 -0.175736 -0.043507 -0.990039 -0.133900 -0.062111 -0.994401 -0.085488 -0.056990 -0.997516 -0.041406 -0.033425 -0.999382 -0.010861 
						0.000183 -1.000000 0.000000 0.033740 -0.999371 -0.010963 0.057212 -0.997496 -0.041567 0.062217 -0.994382 -0.085634 0.043515 -0.990035 -0.133926 0.000000 -0.984465 -0.175581 -0.323722 0.125031 -0.937855 -0.304465 0.170986 -0.937051 -0.584478 -0.105936 -0.804465 -0.558876 -0.171364 -0.811352 -0.746631 -0.385071 -0.542459 -0.681385 -0.451896 -0.575764 -0.722095 -0.650792 -0.234623 -0.645211 -0.695878 -0.315366 -0.498783 -0.866727 -0.000000 -0.459727 -0.878932 -0.126999 -0.160040 -0.985740 0.052000 -0.193504 -0.977357 -0.085615 0.143336 -0.984180 -0.104140 0.050198 -0.976233 -0.210828 0.286530 -0.873138 -0.394374 0.175496 -0.872490 -0.456029 0.226397 -0.680620 -0.696779 0.132320 -0.677139 -0.723860 0.000000 -0.438003 -0.898973 -0.060248 -0.416960 -0.906926 -0.304465 -0.170989 -0.937051 -0.323723 -0.125038 -0.937853 -0.584478 0.105937 -0.804465 -0.558876 0.171362 -0.811352 -0.746634 0.385062 -0.542461 -0.681416 0.451834 -0.575776 -0.722103 0.650783 -0.234625 -0.645183 0.695907 -0.315360 -0.498764 0.866738 0.000000 -0.459717 0.878937 -0.126999 -0.160042 0.985739 0.052001 -0.193507 0.977356 -0.085615 0.143318 0.984184 -0.104127 0.050202 0.976232 -0.210831 0.286504 0.873162 -0.394339 0.175506 0.872482 -0.456041 0.226381 0.680674 -0.696731 0.132307 0.677170 -0.723834 0.000001 0.438018 -0.898966 -0.060248 0.416969 -0.906922 -0.453986 0.000000 -0.891009 -0.453970 0.031086 -0.890475 -0.454367 -0.030911 -0.890278 -0.453998 0.000001 -0.891003 -0.453108 -0.089581 -0.886943 -0.454046 0.000000 -0.890978 -0.450595 -0.138865 -0.881862 -0.454050 -0.000000 -0.890976 -0.447858 -0.174109 -0.876989 -0.454006 -0.000000 -0.890999 -0.445924 -0.192409 -0.874146 -0.454003 -0.000000 -0.891000 -0.445504 -0.192423 -0.874357 -0.453983 -0.000000 -0.891010 -0.446718 -0.174156 -0.877560 -0.453964 0.000000 -0.891020 -0.449213 -0.138962 -0.882551 -0.453937 0.000000 -0.891034 
						-0.451934 -0.089723 -0.887528 -0.453945 0.000000 -0.891030 -0.453961 -0.031084 -0.890479 -0.453987 0.000000 -0.891008 -0.454450 0.030894 -0.890236 -0.453986 0.000000 -0.891009 -0.453072 0.089589 -0.886961 -0.453926 0.000001 -0.891039 -0.450608 0.138863 -0.881856 -0.453963 0.000001 -0.891021 -0.447846 0.174111 -0.876995 -0.453950 -0.000001 -0.891027 -0.445915 0.192409 -0.874150 -0.453983 -0.000000 -0.891010 -0.445513 0.192423 -0.874352 -0.454003 0.000000 -0.891000 -0.446744 0.174158 -0.877547 -0.454021 0.000000 -0.890991 -0.449190 0.138958 -0.882564 -0.454025 0.000000 -0.890989 -0.451983 0.089733 -0.887502 -0.454044 0.000000 -0.890979 -0.364674 0.149842 -0.918999 -0.175053 0.417416 -0.891695 -0.417428 0.170776 -0.892519 -0.440385 0.058084 -0.895928 -0.461602 -0.060049 -0.885052 -0.537199 -0.131416 -0.833155 -0.473150 -0.172184 -0.863991 -0.627899 -0.403652 -0.665438 -0.470512 -0.267669 -0.840816 -0.600761 -0.640919 -0.477818 -0.454790 -0.337226 -0.824284 -0.464626 -0.816604 -0.342464 -0.431878 -0.373948 -0.820759 -0.272381 -0.909944 -0.312746 -0.410559 -0.373976 -0.831615 -0.098474 -0.910921 -0.400657 -0.398954 -0.337108 -0.852756 -0.009539 -0.820165 -0.572048 -0.401666 -0.267029 -0.875991 -0.039173 -0.648802 -0.759949 -0.417419 -0.170772 -0.892523 -0.175051 -0.417407 -0.891700 -0.440392 -0.058087 -0.895925 -0.364679 -0.149853 -0.918996 -0.461740 0.059987 -0.884984 -0.537198 0.131418 -0.833155 -0.473168 0.172177 -0.863983 -0.627975 0.403538 -0.665435 -0.470608 0.267640 -0.840772 -0.600698 0.640975 -0.477821 -0.454808 0.337223 -0.824275 -0.464618 0.816607 -0.342466 -0.431878 0.373948 -0.820758 -0.272387 0.909943 -0.312744 -0.410559 0.373976 -0.831615 -0.098449 0.910917 -0.400672 -0.398944 0.337108 -0.852761 -0.009472 0.820122 -0.572110 -0.401560 0.266997 -0.876049 -0.039175 0.648805 -0.759946 
					</float_array>
					<technique_common>
						<accessor count="574" offset="0" source="#meshId0-bitangents-array" stride="3">
							<param name="X" type="float" />
							<param name="Y" type="float" />
							<param name="Z" type="float" />
						</accessor>
					</technique_common>
				</source>
				<source id="meshId0-tex0" name="meshId0-tex0">
					<float_array id="meshId0-tex0-array" count="1148"> 
						0.393494 0.111217 0.391835 0.032570 0.408680 0.031060 0.409540 0.108784 0.425904 0.029738 0.425464 0.106320 0.443589 0.028847 0.441306 0.104067 0.461797 0.028686 0.457121 0.102376 0.130634 0.103597 0.124062 0.029234 0.142540 0.028690 0.146635 0.104510 0.160628 0.029054 0.162704 0.106171 0.178320 0.030032 0.178864 0.108223 0.195646 0.031368 0.195132 0.110411 0.212650 0.032853 0.211515 0.112548 0.229383 0.034317 0.228005 0.114495 0.245894 0.035628 0.244588 0.116148 0.262230 0.036688 0.261242 0.117428 0.278435 0.037424 0.277939 0.118281 0.294551 0.037791 0.294650 0.118667 0.310616 0.037766 0.311341 0.118565 0.326674 0.037348 0.327981 0.117971 0.342769 0.036559 0.344539 0.116897 0.358953 0.035445 0.360990 0.115373 0.375285 0.034080 0.377312 0.113453 0.440147 0.259054 0.411920 0.194360 0.429819 0.188555 0.462930 0.249425 0.446952 0.181685 0.484685 0.237662 0.463168 0.173688 0.505019 0.223589 0.478304 0.164482 0.523500 0.207111 0.067760 0.206986 0.111306 0.165385 0.127129 0.173634 0.086911 0.222439 0.143808 0.180949 0.107442 0.235752 0.161228 0.187379 0.129082 0.247021 0.179286 0.192954 0.151561 0.256422 0.197879 0.197693 0.174660 0.264134 
						0.216908 0.201607 0.198214 0.270316 0.236282 0.204704 0.222103 0.275094 0.255913 0.206984 0.246238 0.278559 0.275716 0.208443 0.270550 0.280768 0.295609 0.209074 0.294982 0.281743 0.315511 0.208861 0.319478 0.281478 0.335336 0.207787 0.343980 0.279932 0.354993 0.205829 0.368412 0.277034 0.374383 0.202960 0.392678 0.272683 0.393398 0.199149 0.416649 0.266744 0.928222 0.226458 0.937125 0.198722 0.965124 0.203303 0.953436 0.239467 0.989963 0.207411 0.975790 0.251049 0.911185 0.250085 0.931144 0.270248 0.948825 0.288172 0.887680 0.267291 0.900432 0.292636 0.911709 0.315145 0.860008 0.276392 0.864304 0.304436 0.868074 0.329329 0.830878 0.276496 0.826298 0.304496 0.822190 0.329335 0.803142 0.267594 0.790133 0.292807 0.778551 0.315161 0.779515 0.250556 0.759351 0.270516 0.741428 0.288196 0.762309 0.227051 0.736964 0.239803 0.714455 0.251080 0.753208 0.199379 0.725164 0.203675 0.700271 0.207444 0.753104 0.170250 0.725105 0.165669 0.700266 0.161561 0.762007 0.142514 0.736793 0.129505 0.714440 0.117922 0.779045 0.118886 0.759085 0.098722 0.741405 0.080799 0.802550 0.101681 0.789798 0.076336 0.778522 0.053826 0.830221 0.092580 0.825925 0.064535 
						0.822156 0.039643 0.859351 0.092476 0.863931 0.064477 0.868040 0.039638 0.887087 0.101379 0.900096 0.076165 0.911679 0.053812 0.910714 0.118416 0.930878 0.098457 0.948801 0.080776 0.927920 0.141921 0.953265 0.129169 0.975774 0.117893 0.937020 0.169593 0.965065 0.165297 0.989958 0.161528 0.876321 0.189266 0.873316 0.198675 0.845114 0.184486 0.867551 0.206695 0.859590 0.212542 0.850212 0.215642 0.840334 0.215692 0.830925 0.212688 0.822905 0.206923 0.817059 0.198962 0.813958 0.189583 0.813908 0.179706 0.816913 0.170297 0.822677 0.162276 0.830638 0.156430 0.840017 0.153330 0.849894 0.153280 0.859304 0.156284 0.867324 0.162049 0.873170 0.170010 0.876270 0.179389 0.910979 0.217681 0.918013 0.195703 0.897564 0.192527 0.892513 0.208341 0.897497 0.236409 0.882821 0.221820 0.878889 0.250055 0.869439 0.231645 0.856974 0.257282 0.853675 0.236853 0.833897 0.257384 0.837073 0.236936 0.811919 0.250350 0.821259 0.231884 0.793191 0.236869 0.807780 0.222193 0.779545 0.218260 0.797955 0.208810 0.772318 0.196345 0.792747 0.193047 0.772216 0.173269 0.792664 0.176445 0.779250 0.151291 0.797716 0.160631 0.792732 0.132562 0.807408 0.147151 0.811341 0.118917 
						0.820790 0.137327 0.833256 0.111690 0.836553 0.132119 0.856331 0.111588 0.853155 0.132036 0.878310 0.118622 0.868970 0.137088 0.897038 0.132104 0.882449 0.146780 0.910684 0.150712 0.892274 0.160162 0.917911 0.172627 0.897482 0.175925 0.293759 0.326020 0.321214 0.325760 0.266417 0.324829 0.239202 0.322193 0.212131 0.318068 0.185235 0.312360 0.158571 0.304914 0.132238 0.295511 0.106411 0.283854 0.081376 0.269564 0.057616 0.252161 0.035957 0.231055 0.534841 0.253932 0.556165 0.231890 0.510880 0.272191 0.485261 0.287079 0.458640 0.299011 0.431448 0.308369 0.403964 0.315483 0.376366 0.320621 0.348762 0.323995 0.295134 0.158509 0.312827 0.158364 0.277431 0.158043 0.259782 0.156983 0.242249 0.155356 0.224894 0.153197 0.207773 0.150552 0.190936 0.147478 0.174424 0.144046 0.158258 0.140341 0.142422 0.136462 0.126839 0.132511 0.446507 0.136172 0.461663 0.131279 0.431024 0.140696 0.415143 0.144816 0.398855 0.148477 0.382188 0.151624 0.365191 0.154213 0.347922 0.156211 0.330445 0.157598 0.292016 0.365807 0.322020 0.365588 0.262173 0.364414 0.232463 0.361417 0.202863 0.356756 0.173359 0.350306 0.143967 0.341863 0.114741 0.331130 0.085816 0.317689 
						0.057451 0.300960 0.030146 0.280124 0.004883 0.253967 0.562518 0.282381 0.587895 0.255070 0.534364 0.304346 0.504744 0.321853 0.474406 0.335635 0.443784 0.346286 0.413131 0.354282 0.382584 0.359991 0.352207 0.363693 0.285574 0.790301 0.375792 0.804145 0.360008 0.852737 0.278484 0.811691 0.329983 0.894072 0.265132 0.829845 0.288653 0.924108 0.246823 0.842985 0.240064 0.939902 0.225350 0.849823 0.188974 0.939908 0.202815 0.849690 0.140382 0.924127 0.181423 0.842602 0.099044 0.894102 0.163269 0.829249 0.069007 0.852771 0.150130 0.810941 0.053213 0.804181 0.143293 0.789468 0.053208 0.753090 0.143425 0.766933 0.068991 0.704497 0.150515 0.745542 0.099018 0.663160 0.163868 0.727389 0.140348 0.633127 0.182178 0.714252 0.188934 0.617333 0.203650 0.707412 0.240024 0.617326 0.226185 0.707543 0.288618 0.633107 0.247577 0.714632 0.329956 0.663132 0.265730 0.727984 0.359992 0.704463 0.278870 0.746293 0.375786 0.753052 0.285707 0.767766 0.248436 0.403289 0.198879 0.413060 0.198127 0.409649 0.247805 0.399854 0.379273 0.752502 0.379278 0.804698 0.363153 0.854340 0.148832 0.421205 0.149703 0.424587 0.332478 0.896569 0.100004 0.434537 0.100987 0.437888 
						0.290254 0.927253 0.051820 0.449606 0.052865 0.452938 0.240615 0.943388 0.004883 0.465389 0.005810 0.468775 0.188420 0.943394 0.947536 0.449054 0.995117 0.465001 0.994209 0.468387 0.946509 0.452389 0.138779 0.927271 0.899350 0.434152 0.898399 0.437511 0.096547 0.896597 0.850535 0.420916 0.849697 0.424307 0.065862 0.854372 0.801237 0.409415 0.800520 0.412833 0.049727 0.804732 0.751554 0.399662 0.750957 0.403104 0.049722 0.752536 0.701554 0.391670 0.701080 0.395130 0.065847 0.702893 0.651303 0.385447 0.650951 0.388922 0.096523 0.660664 0.600864 0.381002 0.600634 0.384487 0.138747 0.629981 0.550299 0.378340 0.550192 0.381831 0.188383 0.613847 0.499671 0.377465 0.499688 0.380958 0.240578 0.613840 0.449044 0.378378 0.449185 0.381868 0.290221 0.629963 0.398481 0.381078 0.398745 0.384561 0.332453 0.660637 0.348045 0.385561 0.348432 0.389033 0.363138 0.702861 0.297799 0.391822 0.298308 0.395278 0.259675 0.466120 0.212326 0.475448 0.210535 0.466966 0.258184 0.457580 0.163242 0.478018 0.165332 0.486429 0.116348 0.490696 0.118747 0.499015 0.069819 0.504986 0.072639 0.513139 0.023254 0.521700 0.027315 0.529484 0.929783 0.504851 0.975729 0.521542 
						0.971631 0.529378 0.926878 0.513017 0.883225 0.490483 0.880762 0.498792 0.836296 0.477802 0.834145 0.486199 0.788989 0.466774 0.787135 0.475243 0.741331 0.457418 0.739777 0.465947 0.693376 0.449750 0.692124 0.458328 0.645180 0.443779 0.644232 0.452397 0.596804 0.439514 0.596160 0.448160 0.548307 0.436959 0.547969 0.445622 0.499750 0.436118 0.499718 0.444788 0.451194 0.436992 0.451468 0.445657 0.402699 0.439579 0.403279 0.448229 0.354325 0.443877 0.355210 0.452501 0.306134 0.449880 0.307323 0.458467 0.662073 0.744123 0.623560 0.772182 0.554238 0.636570 0.690031 0.705536 0.704697 0.660198 0.704634 0.612547 0.689850 0.567248 0.661791 0.528735 0.623204 0.500777 0.577867 0.486111 0.530216 0.486174 0.484917 0.500958 0.446403 0.529017 0.418445 0.567604 0.403780 0.612941 0.403842 0.660592 0.418626 0.705891 0.446685 0.744405 0.485272 0.772363 0.530610 0.787028 0.578260 0.786966 0.210535 0.466966 0.163242 0.478018 0.116348 0.490696 0.069819 0.504986 0.023254 0.521700 0.975729 0.521542 0.929783 0.504851 0.883225 0.490483 0.836296 0.477802 0.788989 0.466774 0.741331 0.457418 0.693376 0.449750 0.645180 0.443779 0.596804 0.439514 0.548307 0.436959 
						0.499750 0.436118 0.451194 0.436992 0.402699 0.439579 0.354325 0.443877 0.306134 0.449880 0.258184 0.457580 0.680842 0.093526 0.689750 0.092092 0.689750 0.118841 0.680836 0.117453 0.681485 0.144281 0.673436 0.140206 0.665763 0.165921 0.659367 0.159558 0.644123 0.181644 0.640006 0.173616 0.618683 0.189911 0.617249 0.181004 0.591935 0.189911 0.593323 0.180997 0.566495 0.181646 0.570570 0.173597 0.544854 0.165924 0.551217 0.159528 0.529131 0.144284 0.537159 0.140167 0.520865 0.118844 0.529772 0.117410 0.520864 0.092096 0.529779 0.093484 0.529129 0.066656 0.537178 0.070731 0.544851 0.045015 0.551247 0.051378 0.566491 0.029292 0.570608 0.037320 0.591931 0.021026 0.593365 0.029933 0.618680 0.021025 0.617292 0.029940 0.644120 0.029290 0.640045 0.037340 0.665760 0.045012 0.659397 0.051409 0.681483 0.066652 0.673455 0.070769 0.662996 0.096331 0.670067 0.095211 0.670067 0.115725 0.662996 0.114605 0.663728 0.135235 0.657349 0.131985 0.651670 0.151831 0.646608 0.146769 0.635074 0.163889 0.631824 0.157510 0.615564 0.170228 0.614444 0.163157 0.595050 0.170228 0.596170 0.163157 0.575540 0.163889 0.578791 0.157510 0.558944 0.151831 0.564007 0.146769 
						0.546886 0.135235 0.553266 0.131985 0.540547 0.115725 0.547619 0.114605 0.540547 0.095211 0.547619 0.096331 0.546886 0.075701 0.553266 0.078952 0.558944 0.059105 0.564007 0.064168 0.575540 0.047047 0.578791 0.053427 0.595050 0.040708 0.596170 0.047780 0.615564 0.040708 0.614444 0.047780 0.635074 0.047047 0.631824 0.053427 0.651670 0.059105 0.646607 0.064168 0.663728 0.075701 0.657349 0.078952 0.675474 0.094359 0.668607 0.073220 0.668607 0.073220 0.675474 0.094359 0.675473 0.116586 0.675473 0.116586 0.668603 0.137724 0.668603 0.137724 0.655538 0.155705 0.655538 0.155705 0.637555 0.168768 0.637555 0.168768 0.616416 0.175635 0.616416 0.175635 0.594190 0.175634 0.594190 0.175634 0.573051 0.168764 0.573051 0.168764 0.555070 0.155699 0.555070 0.155699 0.542007 0.137716 0.542007 0.137716 0.535140 0.116577 0.535140 0.116577 0.535141 0.094351 0.535141 0.094351 0.542011 0.073212 0.542011 0.073212 0.555077 0.055232 0.555077 0.055232 0.573059 0.042168 0.573059 0.042168 0.594198 0.035301 0.594198 0.035301 0.616425 0.035302 0.616425 0.035302 0.637563 0.042172 0.637563 0.042172 0.655544 0.055238 0.655544 0.055238 
					</float_array>
					<technique_common>
						<accessor count="574" offset="0" source="#meshId0-tex0-array" stride="2">
							<param name="S" type="float" />
							<param name="T" type="float" />
						</accessor>
					</technique_common>
				</source>
				<vertices id="meshId0-vertices">
					<input semantic="POSITION" source="#meshId0-positions" />
				</vertices>
				<polylist count="840" material="defaultMaterial">
					<input offset="0" semantic="VERTEX" source="#meshId0-vertices" />
					<input offset="0" semantic="NORMAL" source="#meshId0-normals" />
					<input offset="0" semantic="TANGENT" source="#meshId0-tangents" />
					<input offset="0" semantic="BINORMAL" source="#meshId0-bitangents" />
					<input offset="0" semantic="TEXCOORD" source="#meshId0-tex0" set="0" />
					<vcount>
						3 3 3 3 3 3 3 3 3 3 3 3 3 3 3 3 3 3 3 3 3 3 3 3 3 3 3 3 3 3 3 3 3 3 3 3 3 3 3 3 3 3 3 3 3 3 3 3 3 3 3 3 3 3 3 3 3 3 3 3 3 3 3 3 
						3 3 3 3 3 3 3 3 3 3 3 3 3 3 3 3 3 3 3 3 3 3 3 3 3 3 3 3 3 3 3 3 3 3 3 3 3 3 3 3 3 3 3 3 3 3 3 3 3 3 3 3 3 3 3 3 3 3 3 3 3 3 3 3 
						3 3 3 3 3 3 3 3 3 3 3 3 3 3 3 3 3 3 3 3 3 3 3 3 3 3 3 3 3 3 3 3 3 3 3 3 3 3 3 3 3 3 3 3 3 3 3 3 3 3 3 3 3 3 3 3 3 3 3 3 3 3 3 3 
						3 3 3 3 3 3 3 3 3 3 3 3 3 3 3 3 3 3 3 3 3 3 3 3 3 3 3 3 3 3 3 3 3 3 3 3 3 3 3 3 3 3 3 3 3 3 3 3 3 3 3 3 3 3 3 3 3 3 3 3 3 3 3 3 
						3 3 3 3 3 3 3 3 3 3 3 3 3 3 3 3 3 3 3 3 3 3 3 3 3 3 3 3 3 3 3 3 3 3 3 3 3 3 3 3 3 3 3 3 3 3 3 3 3 3 3 3 3 3 3 3 3 3 3 3 3 3 3 3 
						3 3 3 3 3 3 3 3 3 3 3 3 3 3 3 3 3 3 3 3 3 3 3 3 3 3 3 3 3 3 3 3 3 3 3 3 3 3 3 3 3 3 3 3 3 3 3 3 3 3 3 3 3 3 3 3 3 3 3 3 3 3 3 3 
						3 3 3 3 3 3 3 3 3 3 3 3 3 3 3 3 3 3 3 3 3 3 3 3 3 3 3 3 3 3 3 3 3 3 3 3 3 3 3 3 3 3 3 3 3 3 3 3 3 3 3 3 3 3 3 3 3 3 3 3 3 3 3 3 
						3 3 3 3 3 3 3 3 3 3 3 3 3 3 3 3 3 3 3 3 3 3 3 3 3 3 3 3 3 3 3 3 3 3 3 3 3 3 3 3 3 3 3 3 3 3 3 3 3 3 3 3 3 3 3 3 3 3 3 3 3 3 3 3 
						3 3 3 3 3 3 3 3 3 3 3 3 3 3 3 3 3 3 3 3 3 3 3 3 3 3 3 3 3 3 3 3 3 3 3 3 3 3 3 3 3 3 3 3 3 3 3 3 3 3 3 3 3 3 3 3 3 3 3 3 3 3 3 3 
						3 3 3 3 3 3 3 3 3 3 3 3 3 3 3 3 3 3 3 3 3 3 3 3 3 3 3 3 3 3 3 3 3 3 3 3 3 3 3 3 3 3 3 3 3 3 3 3 3 3 3 3 3 3 3 3 3 3 3 3 3 3 3 3 
						3 3 3 3 3 3 3 3 3 3 3 3 3 3 3 3 3 3 3 3 3 3 3 3 3 3 3 3 3 3 3 3 3 3 3 3 3 3 3 3 3 3 3 3 3 3 3 3 3 3 3 3 3 3 3 3 3 3 3 3 3 3 3 3 
						3 3 3 3 3 3 3 3 3 3 3 3 3 3 3 3 3 3 3 3 3 3 3 3 3 3 3 3 3 3 3 3 3 3 3 3 3 3 3 3 3 3 3 3 3 3 3 3 3 3 3 3 3 3 3 3 3 3 3 3 3 3 3 3 
						3 3 3 3 3 3 3 3 3 3 3 3 3 3 3 3 3 3 3 3 3 3 3 3 3 3 3 3 3 3 3 3 3 3 3 3 3 3 3 3 3 3 3 3 3 3 3 3 3 3 3 3 3 3 3 3 3 3 3 3 3 3 3 3 
						3 3 3 3 3 3 3 3 
					</vcount>
					<p>
						0 1 2 2 3 0 3 2 4 4 5 3 5 4 6 6 7 5 7 6 8 8 9 7 10 11 12 12 13 10 13 12 14 14 15 13 15 14 16 16 17 15 17 16 18 18 19 17 19 18 20 20 21 19 21 20 22 22 23 21 23 22 24 24 25 23 25 24 26 26 27 25 27 26 28 28 29 27 29 28 30 30 31 29 31 30 32 32 33 31 33 32 34 34 35 33 35 34 36 36 37 35 37 36 38 38 39 37 39 38 40 40 41 39 41 40 1 1 0 41 42 43 44 44 45 42 45 44 46 46 47 45 47 46 48 48 49 47 49 48 50 50 51 49 52 53 54 54 55 52 55 54 56 56 57 55 57 56 58 58 59 57 59 58 60 60 61 59 61 60 62 62 63 61 63 62 64 64 65 63 65 64 66 66 67 65 67 66 68 68 69 67 
						69 68 70 70 71 69 71 70 72 72 73 71 73 72 74 74 75 73 75 74 76 76 77 75 77 76 78 78 79 77 79 78 80 80 81 79 81 80 82 82 83 81 83 82 43 43 42 83 84 85 86 86 87 84 87 86 88 88 89 87 90 84 87 87 91 90 91 87 89 89 92 91 93 90 91 91 94 93 94 91 92 92 95 94 96 93 94 94 97 96 97 94 95 95 98 97 99 96 97 97 100 99 100 97 98 98 101 100 102 99 100 100 103 102 103 100 101 101 104 103 105 102 103 103 106 105 106 103 104 104 107 106 108 105 106 106 109 108 109 106 107 107 110 109 111 108 109 109 112 111 112 109 110 110 113 112 114 111 112 112 115 114 115 112 113 113 116 115 117 114 115 115 118 117 118 115 116 116 119 118 120 117 118 118 121 120 121 118 119 119 122 121 
						123 120 121 121 124 123 124 121 122 122 125 124 126 123 124 124 127 126 127 124 125 125 128 127 129 126 127 127 130 129 130 127 128 128 131 130 132 129 130 130 133 132 133 130 131 131 134 133 135 132 133 133 136 135 136 133 134 134 137 136 138 135 136 136 139 138 139 136 137 137 140 139 141 138 139 139 142 141 142 139 140 140 143 142 143 88 86 86 142 143 142 86 85 85 141 142 144 145 146 145 147 146 147 148 146 148 149 146 149 150 146 150 151 146 151 152 146 152 153 146 153 154 146 154 155 146 155 156 146 156 157 146 157 158 146 158 159 146 159 160 146 160 161 146 161 162 146 162 163 146 163 164 146 164 144 146 165 166 85 85 84 165 145 144 167 167 168 145 168 167 166 166 165 168 169 165 84 84 90 169 147 145 168 168 170 147 170 168 165 165 169 170 
						171 169 90 90 93 171 148 147 170 170 172 148 172 170 169 169 171 172 173 171 93 93 96 173 149 148 172 172 174 149 174 172 171 171 173 174 175 173 96 96 99 175 150 149 174 174 176 150 176 174 173 173 175 176 177 175 99 99 102 177 151 150 176 176 178 151 178 176 175 175 177 178 179 177 102 102 105 179 152 151 178 178 180 152 180 178 177 177 179 180 181 179 105 105 108 181 153 152 180 180 182 153 182 180 179 179 181 182 183 181 108 108 111 183 154 153 182 182 184 154 184 182 181 181 183 184 185 183 111 111 114 185 155 154 184 184 186 155 186 184 183 183 185 186 187 185 114 114 117 187 156 155 186 186 188 156 188 186 185 185 187 188 189 187 117 117 120 189 157 156 188 188 190 157 190 188 187 187 189 190 191 189 120 120 123 191 158 157 190 190 192 158 
						192 190 189 189 191 192 193 191 123 123 126 193 159 158 192 192 194 159 194 192 191 191 193 194 195 193 126 126 129 195 160 159 194 194 196 160 196 194 193 193 195 196 197 195 129 129 132 197 161 160 196 196 198 161 198 196 195 195 197 198 199 197 132 132 135 199 162 161 198 198 200 162 200 198 197 197 199 200 201 199 135 135 138 201 163 162 200 200 202 163 202 200 199 199 201 202 203 201 138 138 141 203 164 163 202 202 204 164 204 202 201 201 203 204 141 85 166 166 203 141 203 166 167 167 204 203 204 167 144 144 164 204 205 73 75 75 206 205 207 71 73 73 205 207 208 69 71 71 207 208 209 67 69 69 208 209 210 65 67 67 209 210 211 63 65 65 210 211 212 61 63 63 211 212 213 59 61 61 212 213 214 57 59 59 213 214 215 55 57 57 214 215 
						216 52 55 55 215 216 217 49 51 51 218 217 219 47 49 49 217 219 220 45 47 47 219 220 221 42 45 45 220 221 222 83 42 42 221 222 223 81 83 83 222 223 224 79 81 81 223 224 225 77 79 79 224 225 206 75 77 77 225 206 226 31 33 33 227 226 228 29 31 31 226 228 229 27 29 29 228 229 230 25 27 27 229 230 231 23 25 25 230 231 232 21 23 23 231 232 233 19 21 21 232 233 234 17 19 19 233 234 235 15 17 17 234 235 236 13 15 15 235 236 237 10 13 13 236 237 238 7 9 9 239 238 240 5 7 7 238 240 241 3 5 5 240 241 242 0 3 3 241 242 243 41 0 0 242 243 244 39 41 41 243 244 245 37 39 39 244 245 246 35 37 37 245 246 227 33 35 35 246 227 247 205 206 206 248 247 249 207 205 205 247 249 
						250 208 207 207 249 250 251 209 208 208 250 251 252 210 209 209 251 252 253 211 210 210 252 253 254 212 211 211 253 254 255 213 212 212 254 255 256 214 213 213 255 256 257 215 214 214 256 257 258 216 215 215 257 258 259 217 218 218 260 259 261 219 217 217 259 261 262 220 219 219 261 262 263 221 220 220 262 263 264 222 221 221 263 264 265 223 222 222 264 265 266 224 223 223 265 266 267 225 224 224 266 267 248 206 225 225 267 248 268 269 270 270 271 268 271 270 272 272 273 271 273 272 274 274 275 273 275 274 276 276 277 275 277 276 278 278 279 277 279 278 280 280 281 279 281 280 282 282 283 281 283 282 284 284 285 283 285 284 286 286 287 285 287 286 288 288 289 287 289 288 290 290 291 289 291 290 292 292 293 291 293 292 294 294 295 293 295 294 296 296 297 295 
						297 296 298 298 299 297 299 298 300 300 301 299 301 300 302 302 303 301 303 302 304 304 305 303 305 304 306 306 307 305 307 306 269 269 268 307 308 309 310 310 311 308 312 313 269 269 306 312 270 269 313 313 314 270 315 310 309 309 316 315 272 270 314 314 317 272 318 315 316 316 319 318 274 272 317 317 320 274 321 318 319 319 322 321 276 274 320 320 323 276 324 321 322 322 325 324 278 276 323 323 326 278 327 328 329 329 330 327 280 278 326 326 331 280 332 327 330 330 333 332 282 280 331 331 334 282 335 332 333 333 336 335 284 282 334 334 337 284 338 335 336 336 339 338 286 284 337 337 340 286 341 338 339 339 342 341 288 286 340 340 343 288 344 341 342 342 345 344 290 288 343 343 346 290 347 344 345 345 348 347 292 290 346 346 349 292 350 347 348 348 351 350 
						294 292 349 349 352 294 353 350 351 351 354 353 296 294 352 352 355 296 356 353 354 354 357 356 298 296 355 355 358 298 359 356 357 357 360 359 300 298 358 358 361 300 362 359 360 360 363 362 302 300 361 361 364 302 365 362 363 363 366 365 304 302 364 364 367 304 368 365 366 366 369 368 306 304 367 367 312 306 311 368 369 369 308 311 370 371 372 372 373 370 374 372 371 371 375 374 376 374 375 375 377 376 378 376 377 377 379 378 380 378 379 379 381 380 382 383 384 384 385 382 386 382 385 385 387 386 388 386 387 387 389 388 390 388 389 389 391 390 392 390 391 391 393 392 394 392 393 393 395 394 396 394 395 395 397 396 398 396 397 397 399 398 400 398 399 399 401 400 402 400 401 401 403 402 404 402 403 403 405 404 406 404 405 405 407 406 408 406 407 407 409 408 
						410 408 409 409 411 410 373 410 411 411 370 373 412 413 414 415 412 414 416 415 414 417 416 414 418 417 414 419 418 414 420 419 414 421 420 414 422 421 414 423 422 414 424 423 414 425 424 414 426 425 414 427 426 414 428 427 414 429 428 414 430 429 414 431 430 414 432 431 414 413 432 414 309 433 434 434 316 309 316 434 435 435 319 316 319 435 436 436 322 319 322 436 437 437 325 322 329 438 439 439 330 329 330 439 440 440 333 330 333 440 441 441 336 333 336 441 442 442 339 336 339 442 443 443 342 339 342 443 444 444 345 342 345 444 445 445 348 345 348 445 446 446 351 348 351 446 447 447 354 351 354 447 448 448 357 354 357 448 449 449 360 357 360 449 450 450 363 360 363 450 451 451 366 363 366 451 452 452 369 366 369 452 453 453 308 369 308 453 433 433 309 308 
						454 455 456 456 457 454 457 456 458 458 459 457 459 458 460 460 461 459 461 460 462 462 463 461 463 462 464 464 465 463 465 464 466 466 467 465 467 466 468 468 469 467 469 468 470 470 471 469 471 470 472 472 473 471 473 472 474 474 475 473 475 474 476 476 477 475 477 476 478 478 479 477 479 478 480 480 481 479 481 480 482 482 483 481 483 482 484 484 485 483 485 484 486 486 487 485 487 486 488 488 489 487 489 488 490 490 491 489 491 490 492 492 493 491 493 492 455 455 454 493 494 495 496 496 497 494 497 496 498 498 499 497 499 498 500 500 501 499 501 500 502 502 503 501 503 502 504 504 505 503 505 504 506 506 507 505 507 506 508 508 509 507 509 508 510 510 511 509 511 510 512 512 513 511 513 512 514 514 515 513 515 514 516 516 517 515 517 516 518 518 519 517 
						519 518 520 520 521 519 521 520 522 522 523 521 523 522 524 524 525 523 525 524 526 526 527 525 527 526 528 528 529 527 529 528 530 530 531 529 531 530 532 532 533 531 533 532 495 495 494 533 493 454 534 534 535 493 536 537 495 495 532 536 496 495 537 537 538 496 539 534 454 454 457 539 498 496 538 538 540 498 541 539 457 457 459 541 500 498 540 540 542 500 543 541 459 459 461 543 502 500 542 542 544 502 545 543 461 461 463 545 504 502 544 544 546 504 547 545 463 463 465 547 506 504 546 546 548 506 549 547 465 465 467 549 508 506 548 548 550 508 551 549 467 467 469 551 510 508 550 550 552 510 553 551 469 469 471 553 512 510 552 552 554 512 555 553 471 471 473 555 514 512 554 554 556 514 557 555 473 473 475 557 516 514 556 556 558 516 559 557 475 475 477 559 
						518 516 558 558 560 518 561 559 477 477 479 561 520 518 560 560 562 520 563 561 479 479 481 563 522 520 562 562 564 522 565 563 481 481 483 565 524 522 564 564 566 524 567 565 483 483 485 567 526 524 566 566 568 526 569 567 485 485 487 569 528 526 568 568 570 528 571 569 487 487 489 571 530 528 570 570 572 530 573 571 489 489 491 573 532 530 572 572 536 532 535 573 491 491 493 535 76 246 245 245 78 76 74 227 246 246 76 74 72 226 227 227 74 72 70 228 226 226 72 70 68 229 228 228 70 68 66 230 229 229 68 66 64 231 230 230 66 64 62 232 231 231 64 62 60 233 232 232 62 60 58 234 233 233 60 58 56 235 234 234 58 56 54 236 235 235 56 54 53 237 236 236 54 53 48 238 239 239 50 48 46 240 238 238 48 46 44 241 240 240 46 44 
						43 242 241 241 44 43 82 243 242 242 43 82 80 244 243 243 82 80 78 245 244 244 80 78 
					</p>
				</polylist>
			</mesh>
		</geometry>
	</library_geometries>
	<library_visual_scenes>
		<visual_scene id="coffee_tamper.obj" name="coffee_tamper.obj">
			<node id="default" name="default">
				<matrix>1.000000 0.000000 0.000000 0.000000 0.000000 1.000000 0.000000 0.000000 0.000000 0.000000 1.000000 0.000000 0.000000 0.000000 0.000000 1.000000</matrix>
			</node>
			<node id="coffee_tamper" name="coffee_tamper">
				<matrix>1.000000 0.000000 0.000000 0.000000 0.000000 1.000000 0.000000 0.000000 0.000000 0.000000 1.000000 0.000000 0.000000 0.000000 0.000000 1.000000</matrix>
				<instance_geometry url="#meshId0">
					<bind_material>
						<technique_common>
							<instance_material symbol="defaultMaterial" target="#initialShadingGroup_1001" />
						</technique_common>
					</bind_material>
				</instance_geometry>
			</node>
		</visual_scene>
	</library_visual_scenes>
	<scene>
		<instance_visual_scene url="#coffee_tamper.obj" />
	</scene>
</COLLADA>
